<svg width="114" height="115" viewBox="0 0 114 115" fill="none" xmlns="http://www.w3.org/2000/svg">
<rect x="2" y="2.5" width="110" height="110" rx="55" fill="#FFF6F6"/>
<rect x="2" y="2.5" width="110" height="110" rx="55" stroke="#FFE5E5" stroke-width="4" stroke-linecap="round" stroke-linejoin="round" stroke-dasharray="20 20"/>
<path d="M53.6666 41.25C52.9762 41.25 52.4166 41.8096 52.4166 42.5V43.75H45.3333C44.6429 43.75 44.0833 44.3096 44.0833 45C44.0833 45.6904 44.6429 46.25 45.3333 46.25H68.6666C69.3569 46.25 69.9166 45.6904 69.9166 45C69.9166 44.3096 69.3569 43.75 68.6666 43.75H61.5833V42.5C61.5833 41.8096 61.0236 41.25 60.3333 41.25H53.6666Z" fill="#FF2727"/>
<path d="M58.7677 62.5L61.2171 64.9494C61.7053 65.4376 61.7053 66.229 61.2171 66.7172C60.729 67.2054 59.9375 67.2054 59.4494 66.7172L56.9999 64.2678L54.5505 66.7172C54.0623 67.2054 53.2709 67.2054 52.7827 66.7172C52.2946 66.2291 52.2946 65.4376 52.7827 64.9494L55.2322 62.5L52.7827 60.0505C52.2945 59.5624 52.2945 58.7709 52.7827 58.2828C53.2709 57.7946 54.0623 57.7946 54.5505 58.2828L56.9999 60.7322L59.4494 58.2828C59.9375 57.7946 60.729 57.7946 61.2172 58.2828C61.7053 58.7709 61.7053 59.5624 61.2172 60.0506L58.7677 62.5Z" fill="#FF2727"/>
<path fill-rule="evenodd" clip-rule="evenodd" d="M46.9856 50.6953C47.056 50.0623 47.591 49.5833 48.228 49.5833H65.7718C66.4088 49.5833 66.9439 50.0623 67.0142 50.6953L67.3478 53.6975C67.9525 59.1397 67.9525 64.6322 67.3478 70.0744L67.3149 70.37C67.0749 72.5302 65.4007 74.2528 63.2481 74.5541C59.1029 75.1344 54.897 75.1344 50.7517 74.5541C48.5992 74.2528 46.9249 72.5302 46.6849 70.3699L46.652 70.0744C46.0474 64.6322 46.0474 59.1397 46.652 53.6975L46.9856 50.6953ZM49.3468 52.0833L49.1368 53.9736C48.5525 59.2323 48.5525 64.5396 49.1368 69.7983L49.1696 70.0939C49.2834 71.1184 50.0775 71.9353 51.0983 72.0783C55.0136 72.6264 58.9862 72.6264 62.9015 72.0783C63.9224 71.9353 64.7164 71.1184 64.8302 70.0939L64.8631 69.7983C65.4474 64.5396 65.4474 59.2323 64.8631 53.9736L64.653 52.0833H49.3468Z" fill="#FF2727"/>
</svg>
