<svg width="24" height="24" viewBox="0 0 24 24" fill="none" xmlns="http://www.w3.org/2000/svg">
<path d="M8.1733 5.62303C7.58137 5.52117 7.05418 5.64062 6.85408 6.20548L4.71352 9.89467C4.67305 9.96333 4.65519 10.0392 4.65519 10.1174C4.65519 10.1629 4.663 10.2086 4.67528 10.2541C4.69928 10.3457 5.26108 11.1073 5.67049 11.6526L5.34536 13.1705C5.32192 13.2797 5.30992 13.3746 5.30378 13.4633C5.30154 13.4672 5.29736 13.4686 5.29596 13.4731L4.80729 17.4363L1.61654 16.5045C1.561 16.4844 1.49234 16.4715 1.41895 16.4715C1.18619 16.4715 0.89734 16.5807 0.813336 16.8008C0.701703 17.0919 0.983018 17.4698 1.21103 17.558L6.04976 19.4097C6.27108 19.4946 6.51639 19.3665 6.5736 19.1365C6.5736 19.1365 7.30787 16.1408 7.6383 15.056C7.72984 14.7566 8.24279 14.2788 8.32038 13.6818L9.21652 6.77564C9.30973 6.06119 8.81798 5.73411 8.1733 5.62303Z" fill="#888888"/>
<path d="M9.00116 5.36853C10.1026 5.36853 10.9955 4.47564 10.9955 3.37421C10.9955 2.27277 10.1026 1.37988 9.00116 1.37988C7.89973 1.37988 7.00684 2.27277 7.00684 3.37421C7.00684 4.47564 7.89973 5.36853 9.00116 5.36853Z" fill="#888888"/>
<path d="M11.531 10.1963L9.8822 9.88455L9.35752 7.63794L8.91602 11.0386C8.92578 11.0453 8.93444 11.0534 8.94504 11.0595C9.04635 11.1228 11.3357 11.5105 11.3636 11.5105C11.6217 11.5105 11.8648 11.2749 11.9256 10.9484C11.9946 10.5887 11.8168 10.2521 11.531 10.1963Z" fill="#888888"/>
<path d="M10.0955 22.0136L8.25945 14.5166C8.19861 14.6168 8.13554 14.7108 8.07693 14.7979C7.99097 14.9255 7.90194 15.0566 7.87934 15.1309C7.71496 15.6709 7.44592 16.7001 7.2207 17.5882L8.87259 22.3108C8.93064 22.55 9.29847 22.869 9.63588 22.7869C9.97329 22.7046 10.1536 22.2522 10.0955 22.0136Z" fill="#888888"/>
<path d="M18.2577 4.97348C16.7447 3.53386 16.3487 1.48342 16.9321 0.715568C16.8853 0.759767 16.8365 0.801036 16.7916 0.848164C15.3815 2.33024 15.5051 4.73707 17.0679 6.22402C18.6307 7.71097 21.0407 7.71481 22.4508 6.23273C22.4978 6.18341 22.5386 6.13042 22.582 6.07925C21.9249 6.60883 19.7683 6.41071 18.2577 4.97348Z" fill="#888888"/>
</svg>
