<svg width="24" height="24" viewBox="0 0 24 24" fill="none" xmlns="http://www.w3.org/2000/svg">
<path d="M11.41 15.392H14.2286C14.6775 15.392 15.0638 15.6604 15.2358 16.0454L17.5386 20.6543C18.1845 21.9518 16.2117 22.934 15.5658 21.6364L15.4554 21.4155L15.4693 21.649C15.5542 23.0939 13.3574 23.2229 13.2725 21.7782L13.0239 17.5975L9.27653 17.5931C8.66992 17.5931 8.17813 17.1013 8.17813 16.4947L8.17816 7.70254C8.04502 5.98545 11.0263 6.65783 11.2635 7.06731L13.6075 11.1064L15.3632 10.4097C16.706 9.87714 17.5158 11.9189 16.173 12.4515L13.5359 13.4979C13.0231 13.7013 12.4629 13.4914 12.195 13.0275L11.41 11.7031L11.41 15.392Z" fill="#00D192"/>
<path d="M9.85881 5.50716C11.0483 5.50716 12.0125 4.54291 12.0125 3.35344C12.0125 2.16396 11.0483 1.19971 9.85881 1.19971C8.66933 1.19971 7.70508 2.16396 7.70508 3.35344C7.70508 4.54291 8.66933 5.50716 9.85881 5.50716Z" fill="#00D192"/>
<path d="M7.28164 18.4797V8.83447H6.33398V18.4797V19.4273H7.28164H12.3056V18.4797H7.28164Z" fill="#00D192"/>
</svg>
