<svg width="24" height="24" viewBox="0 0 24 24" fill="none" xmlns="http://www.w3.org/2000/svg">
<path d="M8.1733 5.62303C7.58137 5.52117 7.05418 5.64062 6.85408 6.20548L4.71352 9.89467C4.67305 9.96333 4.65519 10.0392 4.65519 10.1174C4.65519 10.1629 4.663 10.2086 4.67528 10.2541C4.69928 10.3457 5.26108 11.1073 5.67049 11.6526L5.34536 13.1705C5.32192 13.2797 5.30992 13.3746 5.30378 13.4633C5.30154 13.4672 5.29736 13.4686 5.29596 13.4731L4.80729 17.4363L1.61654 16.5045C1.561 16.4844 1.49234 16.4715 1.41895 16.4715C1.18619 16.4715 0.89734 16.5807 0.813336 16.8008C0.701703 17.0919 0.983018 17.4698 1.21103 17.558L6.04976 19.4097C6.27108 19.4946 6.51639 19.3665 6.5736 19.1365C6.5736 19.1365 7.30787 16.1408 7.6383 15.056C7.72984 14.7566 8.24279 14.2788 8.32038 13.6818L9.21652 6.77564C9.30973 6.06119 8.81798 5.73411 8.1733 5.62303Z" fill="#FF8A35"/>
<path d="M9.00116 5.36853C10.1026 5.36853 10.9955 4.47564 10.9955 3.37421C10.9955 2.27277 10.1026 1.37988 9.00116 1.37988C7.89973 1.37988 7.00684 2.27277 7.00684 3.37421C7.00684 4.47564 7.89973 5.36853 9.00116 5.36853Z" fill="#FF8A35"/>
<path d="M11.531 10.1963L9.8822 9.88455L9.35752 7.63794L8.91602 11.0386C8.92578 11.0453 8.93444 11.0534 8.94504 11.0595C9.04635 11.1228 11.3357 11.5105 11.3636 11.5105C11.6217 11.5105 11.8648 11.2749 11.9256 10.9484C11.9946 10.5887 11.8168 10.2521 11.531 10.1963Z" fill="#FF8A35"/>
<path d="M10.0955 22.0136L8.25945 14.5166C8.19861 14.6168 8.13554 14.7108 8.07693 14.7979C7.99097 14.9255 7.90194 15.0566 7.87934 15.1309C7.71496 15.6709 7.44592 16.7001 7.2207 17.5882L8.87259 22.3108C8.93064 22.55 9.29847 22.869 9.63588 22.7869C9.97329 22.7046 10.1536 22.2522 10.0955 22.0136Z" fill="#FF8A35"/>
<path d="M18.7501 5.62572C19.7857 5.62572 20.6252 4.7862 20.6252 3.75061C20.6252 2.71501 19.7857 1.87549 18.7501 1.87549C17.7145 1.87549 16.875 2.71501 16.875 3.75061C16.875 4.7862 17.7145 5.62572 18.7501 5.62572Z" fill="#FF8A35"/>
<path fill-rule="evenodd" clip-rule="evenodd" d="M16.4064 3.74963C16.4064 3.49053 16.1967 3.28088 15.9376 3.28088H15.4688C15.2096 3.28088 15 3.49053 15 3.74963C15 4.00874 15.2096 4.21838 15.4688 4.21838H15.9375C16.1967 4.21838 16.4064 4.00874 16.4064 3.74963Z" fill="#FF8A35"/>
<path fill-rule="evenodd" clip-rule="evenodd" d="M16.4302 5.4069L16.0983 5.7389C15.9151 5.92194 15.9151 6.21866 16.0983 6.40171C16.2814 6.58476 16.5781 6.58476 16.7612 6.40171L17.0932 6.06983C17.2763 5.88679 17.2763 5.58995 17.0932 5.4069C16.91 5.22374 16.6133 5.22374 16.4302 5.4069Z" fill="#FF8A35"/>
<path fill-rule="evenodd" clip-rule="evenodd" d="M18.75 6.09363C18.4909 6.09363 18.2812 6.30328 18.2812 6.56238V7.03125C18.2812 7.29035 18.4909 7.5 18.75 7.5C19.0091 7.5 19.2187 7.29035 19.2187 7.03125L19.2183 6.56238C19.2188 6.30328 19.0086 6.09363 18.75 6.09363Z" fill="#FF8A35"/>
<path fill-rule="evenodd" clip-rule="evenodd" d="M21.0703 5.40735C20.8876 5.22383 20.5908 5.22383 20.4078 5.40688C20.2247 5.58993 20.2247 5.88676 20.4078 6.06981L20.7393 6.40122C20.9224 6.5852 21.2191 6.58426 21.4021 6.40122C21.5852 6.21817 21.5856 5.92192 21.4021 5.7384L21.0703 5.40735Z" fill="#FF8A35"/>
<path fill-rule="evenodd" clip-rule="evenodd" d="M22.0323 3.28088L21.5625 3.28182C21.3044 3.28088 21.0947 3.49053 21.0947 3.74963C21.0938 4.00874 21.3044 4.21838 21.5625 4.21838H22.0314C22.2914 4.21932 22.5002 4.00874 22.5002 3.74963C22.5006 3.491 22.2914 3.28088 22.0323 3.28088Z" fill="#FF8A35"/>
<path fill-rule="evenodd" clip-rule="evenodd" d="M21.0703 2.09293L21.4017 1.76141C21.5861 1.57789 21.5847 1.28164 21.4017 1.09848C21.219 0.914844 20.9224 0.914844 20.7393 1.09801L20.4078 1.43035C20.2247 1.61258 20.2247 1.90918 20.4078 2.09234C20.5899 2.27656 20.8876 2.27562 21.0703 2.09293Z" fill="#FF8A35"/>
<path fill-rule="evenodd" clip-rule="evenodd" d="M18.75 1.40568C19.0086 1.40756 19.2187 1.19603 19.2187 0.937869V0.469119C19.2187 0.20908 19.0091 0.000369343 18.75 0.000369343C18.4909 -0.000568157 18.2812 0.20908 18.2812 0.468299L18.2822 0.937987C18.2812 1.19603 18.4909 1.40568 18.75 1.40568Z" fill="#FF8A35"/>
<path fill-rule="evenodd" clip-rule="evenodd" d="M16.4314 2.09235C16.6136 2.2754 16.9094 2.2754 17.0931 2.09189C17.2775 1.91013 17.2766 1.61259 17.094 1.42989L16.7625 1.09849C16.5785 0.914385 16.2827 0.915792 16.0995 1.09849C15.915 1.28118 15.915 1.57778 16.0981 1.76095L16.4314 2.09235Z" fill="#FF8A35"/>
</svg>
