<svg width="152" height="118" viewBox="0 0 152 118" fill="none" xmlns="http://www.w3.org/2000/svg">
<path fill-rule="evenodd" clip-rule="evenodd" d="M59.1883 -14.5557C67.5146 -26.738 85.4851 -26.7379 93.8114 -14.5557L97.1048 -9.73712C117.738 20.4519 135.466 52.5273 150.051 86.0596L150.739 87.6412C155.878 99.4581 148.113 112.876 135.307 114.307C96.2238 118.675 56.7759 118.675 17.6929 114.307C4.8864 112.876 -2.87863 99.4581 2.26104 87.6412L2.94893 86.0596C17.5335 52.5274 35.2613 20.4519 55.8949 -9.73716L59.1883 -14.5557ZM84.125 23.6254C84.125 27.8366 80.7112 31.2504 76.5 31.2504C72.2888 31.2504 68.875 27.8366 68.875 23.6254C68.875 19.4143 72.2888 16.0004 76.5 16.0004C80.7112 16.0004 84.125 19.4143 84.125 23.6254ZM76.5 44.5942C79.6584 44.5942 82.2188 47.1546 82.2188 50.3129V88.4379C82.2188 91.5963 79.6584 94.1567 76.5 94.1567C73.3416 94.1567 70.7813 91.5963 70.7813 88.4379V50.3129C70.7813 47.1546 73.3416 44.5942 76.5 44.5942Z" fill="#F5EEFD"/>
</svg>
