<svg width="20" height="20" viewBox="0 0 20 20" fill="none" xmlns="http://www.w3.org/2000/svg">
<path d="M10 2.5C5.85 2.5 2.5 5.85 2.5 10C2.5 14.15 5.85 17.5 10 17.5C14.15 17.5 17.5 14.15 17.5 10C17.5 5.85 14.15 2.5 10 2.5ZM14.4333 10.8167C13.8667 11.4667 13.1167 11.8 12.1833 11.8C11.4667 11.8 10.6 11.5 9.58333 10.9167C8.85 10.5 8.33333 10.25 8.01667 10.25C7.18333 10.25 6.75 10.8333 6.71667 11.8333H4.66667C4.7 10.8333 5 9.83333 5.56667 9.16667C6.13333 8.51667 6.88333 8.18333 7.85 8.18333C8.6 8.18333 9.4 8.45 10.25 8.95C11.1167 9.46667 11.7333 9.73333 12.0667 9.73333C12.4167 9.73333 12.7 9.6 12.9333 9.31667C13.15 9.01667 13.2833 8.65 13.2833 8.15H15.3333C15.3 9.33333 15 10.1667 14.4333 10.8167Z" fill="#01BE4F"/>
</svg>
