<svg width="18" height="18" viewBox="0 0 18 18" fill="none" xmlns="http://www.w3.org/2000/svg">
<path d="M14.0402 12.24H3.24016C2.64454 12.24 2.16016 12.7244 2.16016 13.32V16.02C2.16016 16.3183 2.4019 16.56 2.70016 16.56C2.99842 16.56 3.24016 16.3183 3.24016 16.02V15.48H14.0402V16.02C14.0402 16.3183 14.2819 16.56 14.5802 16.56C14.8784 16.56 15.1202 16.3183 15.1202 16.02V13.32C15.1202 12.7244 14.6358 12.24 14.0402 12.24ZM3.24016 14.4V13.32H14.0402V14.4H3.24016Z" fill="#9039FF"/>
<path d="M15.1191 4.68031H13.4991C13.2944 4.68031 13.1076 4.56475 13.0159 4.38187C12.9245 4.19881 12.9443 3.98011 13.0671 3.81631L14.0391 2.52031H13.4991C13.2008 2.52031 12.9591 2.27857 12.9591 1.98031C12.9591 1.68205 13.2008 1.44031 13.4991 1.44031H15.1191C15.3237 1.44031 15.5106 1.55587 15.602 1.73875C15.6934 1.92163 15.6738 2.14051 15.5509 2.30431L14.5791 3.60031H15.1191C15.4173 3.60031 15.6591 3.84205 15.6591 4.14031C15.6591 4.43857 15.4173 4.68031 15.1191 4.68031Z" fill="#9039FF"/>
<path d="M8.64039 7.92031C6.85371 7.92031 5.40039 6.46699 5.40039 4.68031C5.40039 2.89363 6.85371 1.44031 8.64039 1.44031C10.4271 1.44031 11.8804 2.89363 11.8804 4.68031C11.8804 6.46699 10.4271 7.92031 8.64039 7.92031ZM8.64039 2.52031C7.44933 2.52031 6.48039 3.48925 6.48039 4.68031C6.48039 5.87137 7.44933 6.84031 8.64039 6.84031C9.83145 6.84031 10.8004 5.87137 10.8004 4.68031C10.8004 3.48925 9.83145 2.52031 8.64039 2.52031Z" fill="#9039FF"/>
<path d="M8.63953 5.21999H7.55953C7.26127 5.21999 7.01953 4.97825 7.01953 4.67999C7.01953 4.38173 7.26127 4.13999 7.55953 4.13999H8.09953V3.59945C8.09953 3.30119 8.34127 3.05945 8.63953 3.05945C8.93779 3.05945 9.17953 3.30119 9.17953 3.59945V4.67999C9.17953 4.97825 8.93779 5.21999 8.63953 5.21999Z" fill="#9039FF"/>
<path d="M13.5002 11.6997C13.202 11.6997 12.9602 11.458 12.9602 11.1597V9.98092C10.0945 9.39718 7.18691 9.39718 4.31951 9.97714L4.32023 11.1597C4.32023 11.458 4.07849 11.6997 3.78023 11.6997C3.48197 11.6997 3.24023 11.458 3.24023 11.1597V9.98092C3.24023 9.46684 3.60401 9.02007 4.10531 8.91891C7.11401 8.30925 10.1657 8.30925 13.1752 8.91891C13.6765 9.02007 14.0402 9.46684 14.0402 9.98092V11.1597C14.0402 11.458 13.7985 11.6997 13.5002 11.6997Z" fill="#9039FF"/>
<path d="M7.56039 11.7005H5.94039C5.64213 11.7005 5.40039 11.4587 5.40039 11.1605C5.40039 10.8622 5.64213 10.6205 5.94039 10.6205H7.56039C7.85865 10.6205 8.10039 10.8622 8.10039 11.1605C8.10039 11.4587 7.85865 11.7005 7.56039 11.7005Z" fill="#9039FF"/>
<path d="M11.3397 11.7005H9.71969C9.42143 11.7005 9.17969 11.4587 9.17969 11.1605C9.17969 10.8622 9.42143 10.6205 9.71969 10.6205H11.3397C11.6379 10.6205 11.8797 10.8622 11.8797 11.1605C11.8797 11.4587 11.6379 11.7005 11.3397 11.7005Z" fill="#9039FF"/>
</svg>
