<svg width="24" height="24" viewBox="0 0 24 24" fill="none" xmlns="http://www.w3.org/2000/svg">
<g clip-path="url(#clip0_181_7586)">
<path fill-rule="evenodd" clip-rule="evenodd" d="M12 22.5C7.8645 22.5 4.5 19.1355 4.5 15C4.5 11.1345 10.6935 2.74422 11.3993 1.80147C11.6828 1.42197 12.3173 1.42197 12.6007 1.80147C13.3065 2.74422 19.5 11.1345 19.5 15C19.5 19.1355 16.1355 22.5 12 22.5ZM17.0865 16.1295C17.2402 15.7447 17.0528 15.3082 16.668 15.1545C16.281 15 15.8467 15.189 15.6937 15.573C15.0862 17.0925 13.6365 18.075 12 18.075C11.586 18.075 11.25 18.4102 11.25 18.825C11.25 19.239 11.586 19.575 12 19.575C14.2545 19.575 16.251 18.222 17.0865 16.1295Z" fill="white" fill-opacity="0.8"/>
</g>
<defs>
<clipPath id="clip0_181_7586">
<rect width="24" height="24" fill="white"/>
</clipPath>
</defs>
</svg>
