<svg width="70" height="70" viewBox="0 0 70 70" fill="none" xmlns="http://www.w3.org/2000/svg">
<g clip-path="url(#clip0_181_7693)">
<rect width="70" height="70" rx="35" fill="#FF4D4D"/>
<path d="M53.4582 39.5916L33.1664 35.5333C29.7747 34.8549 26.268 35.0249 22.9578 36.028L16.3899 38.0182C13.1768 38.9919 9.78161 39.1506 6.45892 38.6692C2.31195 38.0685 -2 37.6694 -2 38.5C-2 40 -5.5 49 -5.5 52.5C-5.5 56 -3.5 66 -3 68.5C-2.5 71 4.5 77.5 10 79.5C15.5 81.5 23 80.5 31 80.5C39 80.5 46.5 79 59 77.5C71.5 76 70 71 71.5 68.5C72.529 66.785 72.6511 62.4965 72.5599 59.7328C72.5329 58.9116 72.5579 58.0899 72.6728 57.2764L74.6818 43.0454C75.7788 35.2749 66.0082 30.9293 60.9723 36.9478C59.14 39.1375 56.258 40.1516 53.4582 39.5916Z" fill="white" fill-opacity="0.18"/>
<path d="M21.1796 39.1555L51.7719 33.0342C55.165 32.3553 58.6733 32.5253 61.9848 33.5293L75.2271 37.5439C78.4415 38.5184 81.8387 38.6884 85.157 38.168C91.5112 37.1717 99.0833 36.3164 99.0833 37.6216C99.0833 39.7297 104 52.3784 104 57.2973C104 62.2162 101.19 76.2703 100.488 79.7838C99.7857 83.2973 89.9524 92.4324 82.2262 95.2432C74.5 98.0541 63.9643 96.6487 52.7262 96.6487C41.4881 96.6487 30.9524 94.5405 13.3929 92.4324C-4.16666 90.3243 -2.05952 83.2973 -4.16666 79.7838C-5.61231 77.3733 -5.78375 71.3451 -5.65559 67.461C-5.61755 66.3077 -5.65269 65.1539 -5.81392 64.0113L-8.63738 44.0026C-10.1778 33.0865 3.54948 26.9834 10.6221 35.4399C13.196 38.5174 17.2456 39.9426 21.1796 39.1555Z" fill="white" fill-opacity="0.18"/>
<path d="M28.75 35C28.75 33.3424 29.4085 31.7527 30.5806 30.5806C31.7527 29.4085 33.3424 28.75 35 28.75C36.6576 28.75 38.2473 29.4085 39.4194 30.5806C40.5915 31.7527 41.25 33.3424 41.25 35V42.5H28.75V35Z" stroke="white" stroke-width="2" stroke-linecap="round" stroke-linejoin="round"/>
<path d="M26.25 45C26.25 44.337 26.5134 43.7011 26.9822 43.2322C27.4511 42.7634 28.087 42.5 28.75 42.5H41.25C41.9131 42.5 42.5489 42.7634 43.0178 43.2322C43.4866 43.7011 43.75 44.337 43.75 45V47.5H26.25V45Z" stroke="white" stroke-width="2" stroke-linecap="round" stroke-linejoin="round"/>
<path d="M46.25 35H47.5" stroke="white" stroke-width="2" stroke-linecap="round" stroke-linejoin="round"/>
<path d="M43.125 25.625L42.5 26.25" stroke="white" stroke-width="2" stroke-linecap="round" stroke-linejoin="round"/>
<path d="M22.5 35H23.75" stroke="white" stroke-width="2" stroke-linecap="round" stroke-linejoin="round"/>
<path d="M35 22.5V23.75" stroke="white" stroke-width="2" stroke-linecap="round" stroke-linejoin="round"/>
<path d="M26.1611 26.1611L27.0449 27.0449" stroke="white" stroke-width="2" stroke-linecap="round" stroke-linejoin="round"/>
<path d="M35 35V42.5" stroke="white" stroke-width="2" stroke-linecap="round" stroke-linejoin="round"/>
</g>
<defs>
<clipPath id="clip0_181_7693">
<rect width="70" height="70" rx="35" fill="white"/>
</clipPath>
</defs>
</svg>
