<svg width="18" height="18" viewBox="0 0 18 18" fill="none" xmlns="http://www.w3.org/2000/svg">
<path d="M6.13071 4.21749C5.68676 4.14109 5.29137 4.23068 5.14129 4.65432L3.53587 7.42122C3.50552 7.47271 3.49212 7.52964 3.49212 7.58825C3.49212 7.62237 3.49798 7.65669 3.50719 7.69081C3.52519 7.75947 3.94654 8.33068 4.2536 8.73967L4.00975 9.87812C3.99217 9.95996 3.98317 10.0311 3.97856 10.0977C3.97689 10.1006 3.97375 10.1017 3.9727 10.105L3.6062 13.0775L1.21313 12.3786C1.17148 12.3635 1.11999 12.3539 1.06494 12.3539C0.890376 12.3539 0.673737 12.4357 0.610734 12.6009C0.52701 12.8192 0.737996 13.1026 0.909004 13.1687L4.53806 14.5575C4.70404 14.6211 4.88802 14.5251 4.93093 14.3526C4.93093 14.3526 5.48163 12.1058 5.72946 11.2922C5.79811 11.0676 6.18283 10.7093 6.24102 10.2616L6.91312 5.08195C6.98303 4.54611 6.61422 4.30079 6.13071 4.21749Z" fill="#2B3674"/>
<path d="M6.7516 4.02664C7.57768 4.02664 8.24735 3.35698 8.24735 2.5309C8.24735 1.70482 7.57768 1.03516 6.7516 1.03516C5.92553 1.03516 5.25586 1.70482 5.25586 2.5309C5.25586 3.35698 5.92553 4.02664 6.7516 4.02664Z" fill="#2B3674"/>
<path d="M8.64875 7.64728L7.41214 7.41348L7.01863 5.72852L6.6875 8.27898C6.69483 8.28401 6.70131 8.29008 6.70927 8.29468C6.78525 8.34219 8.50223 8.63293 8.52317 8.63293C8.71678 8.63293 8.89909 8.45627 8.94472 8.21137C8.99642 7.94157 8.86309 7.68914 8.64875 7.64728Z" fill="#2B3674"/>
<path d="M7.57214 16.5104L6.19507 10.8877C6.14944 10.9628 6.10214 11.0334 6.05818 11.0987C5.99372 11.1943 5.92695 11.2927 5.90999 11.3484C5.78671 11.7534 5.58493 12.5254 5.41602 13.1914L6.65493 16.7334C6.69847 16.9127 6.97434 17.152 7.2274 17.0904C7.48046 17.0287 7.61568 16.6894 7.57214 16.5104Z" fill="#2B3674"/>
<path d="M14.0626 4.21941C14.8393 4.21941 15.4689 3.58978 15.4689 2.81308C15.4689 2.03638 14.8393 1.40674 14.0626 1.40674C13.2859 1.40674 12.6562 2.03638 12.6562 2.81308C12.6562 3.58978 13.2859 4.21941 14.0626 4.21941Z" fill="#2B3674"/>
<path fill-rule="evenodd" clip-rule="evenodd" d="M12.3048 2.81201C12.3048 2.61769 12.1475 2.46045 11.9532 2.46045H11.6016C11.4072 2.46045 11.25 2.61769 11.25 2.81201C11.25 3.00634 11.4072 3.16357 11.6016 3.16357H11.9531C12.1475 3.16357 12.3048 3.00634 12.3048 2.81201Z" fill="#2B3674"/>
<path fill-rule="evenodd" clip-rule="evenodd" d="M12.3226 4.05518L12.0737 4.30417C11.9364 4.44146 11.9364 4.664 12.0737 4.80128C12.211 4.93857 12.4336 4.93857 12.5709 4.80128L12.8199 4.55238C12.9572 4.41509 12.9572 4.19246 12.8199 4.05518C12.6825 3.91781 12.46 3.91781 12.3226 4.05518Z" fill="#2B3674"/>
<path fill-rule="evenodd" clip-rule="evenodd" d="M14.0625 4.57031C13.8682 4.57031 13.7109 4.72755 13.7109 4.92188V5.27353C13.7109 5.46785 13.8682 5.62509 14.0625 5.62509C14.2568 5.62509 14.4141 5.46785 14.4141 5.27353L14.4137 4.92188C14.4141 4.72755 14.2565 4.57031 14.0625 4.57031Z" fill="#2B3674"/>
<path fill-rule="evenodd" clip-rule="evenodd" d="M15.8029 4.05542C15.6659 3.91778 15.4434 3.91778 15.3061 4.05507C15.1688 4.19235 15.1688 4.41498 15.3061 4.55227L15.5547 4.80082C15.692 4.93881 15.9146 4.93811 16.0518 4.80082C16.1891 4.66354 16.1895 4.44135 16.0518 4.30371L15.8029 4.05542Z" fill="#2B3674"/>
<path fill-rule="evenodd" clip-rule="evenodd" d="M16.5235 2.46045L16.1712 2.46115C15.9776 2.46045 15.8203 2.61769 15.8203 2.81201C15.8196 3.00634 15.9776 3.16357 16.1712 3.16357H16.5228C16.7179 3.16428 16.8744 3.00634 16.8744 2.81201C16.8747 2.61804 16.7179 2.46045 16.5235 2.46045Z" fill="#2B3674"/>
<path fill-rule="evenodd" clip-rule="evenodd" d="M15.8029 1.56988L16.0515 1.32124C16.1898 1.1836 16.1888 0.961414 16.0515 0.824041C15.9145 0.686316 15.692 0.686316 15.5547 0.823689L15.3061 1.07295C15.1688 1.20962 15.1688 1.43207 15.3061 1.56944C15.4427 1.70761 15.6659 1.7069 15.8029 1.56988Z" fill="#2B3674"/>
<path fill-rule="evenodd" clip-rule="evenodd" d="M14.0625 1.05448C14.2565 1.05588 14.4141 0.897239 14.4141 0.703616V0.352053C14.4141 0.157024 14.2568 0.00049063 14.0625 0.00049063C13.8682 -0.000212495 13.7109 0.157024 13.7109 0.351438L13.7116 0.703704C13.7109 0.897239 13.8682 1.05448 14.0625 1.05448Z" fill="#2B3674"/>
<path fill-rule="evenodd" clip-rule="evenodd" d="M12.3236 1.56927C12.4602 1.70655 12.6821 1.70655 12.8198 1.56891C12.9581 1.4326 12.9574 1.20944 12.8205 1.07242L12.5719 0.823865C12.4339 0.685789 12.212 0.686844 12.0747 0.823865C11.9362 0.960887 11.9362 1.18334 12.0736 1.32071L12.3236 1.56927Z" fill="#2B3674"/>
</svg>
