<svg width="32" height="28" viewBox="0 0 32 28" fill="none" xmlns="http://www.w3.org/2000/svg">
<path d="M5 13.6588C5.10841 12.8611 7.37451 9.37175 7.65735 9.2094C8.49519 8.7282 20.225 9.10289 21.8299 10.0612C22.4603 10.4376 24.9024 15.0027 24.9024 15.556C24.9024 15.9055 18.9382 16.1879 17.9059 16.2386C16.7145 16.2971 14.1246 16.1343 11.5288 15.556C9.40167 15.0819 7.31905 14.4281 5.10841 14.1758C5.05592 14.1697 6.35343 16.2995 7.65735 18.1426C8.26553 19.0026 12.3994 26.7412 12.9716 26.9955C13.5437 27.2499 23.6757 16.5269 25 15.5996" stroke="#01BEBE" stroke-width="1.5" stroke-linecap="round" stroke-linejoin="round"/>
<path d="M18 16C16.7113 18.8727 14.3964 24.3562 14 26" stroke="#01BEBE" stroke-width="1.7" stroke-linecap="round" stroke-linejoin="round"/>
<path d="M12 16C12.6109 19.3348 13.4398 22.688 14 26" stroke="#01BEBE" stroke-width="1.7" stroke-linecap="round" stroke-linejoin="round"/>
<path d="M14 9C12.2148 11.0651 12.7437 12.8516 12 15" stroke="#01BEBE" stroke-width="1.7" stroke-linecap="round" stroke-linejoin="round"/>
<path d="M18 9C18 10.9947 18 14.6761 18 16" stroke="#01BEBE" stroke-width="1.7" stroke-linecap="round" stroke-linejoin="round"/>
<path opacity="0.503384" d="M14 9C12.7147 10.4189 10.3852 12.8288 10 14" stroke="#01BEBE" stroke-linecap="round" stroke-linejoin="round"/>
<path opacity="0.503384" d="M9 9C9.17973 10.7148 9.77479 12.3128 10 14" stroke="#01BEBE" stroke-linecap="round" stroke-linejoin="round"/>
<path opacity="0.503384" d="M14 9C15.4733 10.877 15.5011 13.1512 17 15" stroke="#01BEBE" stroke-linecap="round" stroke-linejoin="round"/>
<path opacity="0.503384" d="M17 10C16.0276 11.7013 14.8586 13.1972 14 15" stroke="#01BEBE" stroke-linecap="round" stroke-linejoin="round"/>
<path opacity="0.503384" d="M18 9C20.34 10.7886 22.0309 13.0383 24 15" stroke="#01BEBE" stroke-linecap="round" stroke-linejoin="round"/>
<path opacity="0.503384" d="M2 8C1.5 7.5 1.05866 7.02034 1 7" stroke="#01BEBE" stroke-width="1.7" stroke-linecap="round" stroke-linejoin="round"/>
<path opacity="0.503384" d="M8 3C8 2.55752 8 2.61739 8 2" stroke="#01BEBE" stroke-width="1.7" stroke-linecap="round" stroke-linejoin="round"/>
<path opacity="0.503384" d="M17 5C17 3.69896 17 2.28863 17 1" stroke="#01BEBE" stroke-width="1.7" stroke-linecap="round" stroke-linejoin="round"/>
<path opacity="0.503384" d="M24 6C24.5 5.5 24.643 5.2697 25 5" stroke="#01BEBE" stroke-width="1.7" stroke-linecap="round" stroke-linejoin="round"/>
<path opacity="0.503384" d="M30 14C30.5 14 30.6678 14 31 14" stroke="#01BEBE" stroke-width="1.7" stroke-linecap="round" stroke-linejoin="round"/>
<path opacity="0.503384" d="M27 25C27.3665 25.3043 27.6745 25.6627 28 26" stroke="#01BEBE" stroke-width="1.7" stroke-linecap="round" stroke-linejoin="round"/>
<path opacity="0.503384" d="M22 16L16 25" stroke="#01BEBE" stroke-linecap="round" stroke-linejoin="round"/>
</svg>
