<svg width="18" height="26" viewBox="0 0 18 26" fill="none" xmlns="http://www.w3.org/2000/svg">
<path d="M15.9203 8.36006C15.9203 12.2041 12.8041 15.3202 8.96016 15.3202C5.11617 15.3202 2 12.2041 2 8.36006C2 4.51607 5.11617 1.3999 8.96016 1.3999C12.8041 1.3999 15.9203 4.51607 15.9203 8.36006Z" stroke="white" stroke-width="2"/>
<path d="M4.41009 14.4602L1.70033 23.3121C1.44045 24.161 2.33333 24.9024 3.12003 24.4909L8.49338 21.6802C8.78372 21.5284 9.13004 21.5284 9.42038 21.6802L14.7937 24.4909C15.5804 24.9024 16.4733 24.161 16.2134 23.3121L13.5037 14.4602" stroke="white" stroke-width="2"/>
<path d="M6.25391 8.5528L8.64097 10.1442L11.028 6.96143" stroke="url(#paint0_linear_418_3236)" stroke-width="2" stroke-linecap="round" stroke-linejoin="round"/>
<defs>
<linearGradient id="paint0_linear_418_3236" x1="8.64097" y1="6.96143" x2="8.64097" y2="10.1442" gradientUnits="userSpaceOnUse">
<stop stop-color="white"/>
<stop offset="1" stop-color="white" stop-opacity="0.56"/>
</linearGradient>
</defs>
</svg>
