<svg width="21" height="20" viewBox="0 0 21 20" fill="none" xmlns="http://www.w3.org/2000/svg">
<path d="M6.66699 7C7.21928 7 7.66699 6.55228 7.66699 6C7.66699 5.44772 7.21928 5 6.66699 5C6.11471 5 5.66699 5.44772 5.66699 6C5.66699 6.55228 6.11471 7 6.66699 7Z" fill="#969BB3" stroke="#969BB3" stroke-width="3" stroke-linecap="round" stroke-linejoin="round"/>
<path d="M14.667 7C15.2193 7 15.667 6.55228 15.667 6C15.667 5.44772 15.2193 5 14.667 5C14.1147 5 13.667 5.44772 13.667 6C13.667 6.55228 14.1147 7 14.667 7Z" fill="#969BB3" stroke="#969BB3" stroke-width="3" stroke-linecap="round" stroke-linejoin="round"/>
<path d="M6.66699 15C7.21928 15 7.66699 14.5523 7.66699 14C7.66699 13.4477 7.21928 13 6.66699 13C6.11471 13 5.66699 13.4477 5.66699 14C5.66699 14.5523 6.11471 15 6.66699 15Z" fill="#969BB3" stroke="#969BB3" stroke-width="3" stroke-linecap="round" stroke-linejoin="round"/>
<path d="M14.667 15C15.2193 15 15.667 14.5523 15.667 14C15.667 13.4477 15.2193 13 14.667 13C14.1147 13 13.667 13.4477 13.667 14C13.667 14.5523 14.1147 15 14.667 15Z" fill="#969BB3" stroke="#969BB3" stroke-width="3" stroke-linecap="round" stroke-linejoin="round"/>
</svg>
