<svg width="16" height="16" viewBox="0 0 16 16" fill="none" xmlns="http://www.w3.org/2000/svg">
<path d="M14.6167 8.05886C16.0906 6.49847 16.0544 4.02976 14.5194 2.5135L14.5194 2.51347C12.9624 0.976023 10.4522 0.98517 8.90921 2.54879L8.00071 3.46822L7.09275 2.54882C5.54818 0.984928 3.03935 0.976234 1.48246 2.51347C-0.0522713 4.029 -0.0890714 6.49702 1.38365 8.05786C1.45345 8.13113 2.53402 9.22384 7.78586 14.5426C7.90395 14.6622 8.09719 14.6623 8.21544 14.5426C13.0671 9.62918 14.5571 8.12168 14.6109 8.06496C14.6129 8.06297 14.6148 8.06088 14.6167 8.05886ZM1.9067 2.94309C3.22734 1.63912 5.3544 1.6479 6.66317 2.97306L7.78586 4.10988C7.90199 4.22749 8.09544 4.2313 8.21541 4.10994L9.33885 2.973C10.6472 1.64706 12.7754 1.63987 14.0952 2.94306C15.3652 4.19773 15.4248 6.22152 14.2653 7.54786H12.0917L11.3561 5.36832C11.314 5.24343 11.1943 5.16017 11.064 5.16301C10.9323 5.16564 10.8175 5.2534 10.7804 5.37983L9.60699 9.37759L8.12705 5.949C8.07926 5.83833 7.97031 5.76675 7.84986 5.76675C7.7282 5.76675 7.61858 5.83975 7.57152 5.95169L6.25445 9.08636L5.0629 7.65654C5.00554 7.58771 4.92056 7.54789 4.83096 7.54789H1.73614C0.57668 6.22122 0.636453 4.1974 1.9067 2.94309Z" fill="#2B3674"/>
</svg>
