<svg width="30" height="30" viewBox="0 0 30 30" fill="none" xmlns="http://www.w3.org/2000/svg">
<path d="M27.9869 15C29.0987 15 30.0139 14.0947 29.8651 12.9929C29.5607 10.7381 28.7459 8.57286 27.472 6.66645C25.8238 4.19971 23.4811 2.27712 20.7403 1.14181C17.9994 0.0064925 14.9834 -0.290558 12.0736 0.288221C9.16393 0.866999 6.49119 2.29561 4.3934 4.3934C2.29561 6.49119 0.866999 9.16393 0.288221 12.0736C-0.290558 14.9834 0.00649254 17.9994 1.14181 20.7403C2.27712 23.4811 4.19971 25.8238 6.66645 27.472C8.57286 28.7459 10.7381 29.5607 12.9929 29.8651C14.0947 30.0139 15 29.0987 15 27.9869C15 26.8751 14.0913 25.9925 12.9982 25.7897C11.5412 25.5194 10.1469 24.9554 8.90325 24.1244C7.09861 22.9186 5.69207 21.2047 4.86148 19.1995C4.0309 17.1943 3.81358 14.9878 4.23701 12.8591C4.66043 10.7304 5.70559 8.77503 7.24031 7.24031C8.77503 5.70559 10.7304 4.66044 12.8591 4.23701C14.9878 3.81358 17.1943 4.0309 19.1995 4.86148C21.2047 5.69207 22.9186 7.09861 24.1244 8.90325C24.9554 10.1469 25.5194 11.5412 25.7897 12.9982C25.9925 14.0913 26.8751 15 27.9869 15Z" fill="url(#paint0_angular_568_16731)"/>
<defs>
<radialGradient id="paint0_angular_568_16731" cx="0" cy="0" r="1" gradientUnits="userSpaceOnUse" gradientTransform="translate(15 15) scale(15)">
<stop stop-color="#131A3F" stop-opacity="0"/>
<stop offset="0.25" stop-color="#192044" stop-opacity="0"/>
<stop offset="1" stop-color="white"/>
</radialGradient>
</defs>
</svg>
