<svg width="18" height="18" viewBox="0 0 18 18" fill="none" xmlns="http://www.w3.org/2000/svg">
<g clip-path="url(#clip0_776_16655)">
<path d="M2.25 10.125H8.25H9.75H15.75H17.25V13.875C17.25 14.0739 17.171 14.2647 17.0303 14.4053C16.8897 14.546 16.6989 14.625 16.5 14.625C16.3011 14.625 16.1103 14.546 15.9697 14.4053C15.829 14.2647 15.75 14.0739 15.75 13.875V11.625H2.25V13.875C2.25 14.0739 2.17098 14.2647 2.03033 14.4053C1.88968 14.546 1.69891 14.625 1.5 14.625C1.30109 14.625 1.11032 14.546 0.96967 14.4053C0.829018 14.2647 0.75 14.0739 0.75 13.875V4.125C0.75 3.92609 0.829018 3.73532 0.96967 3.59467C1.11032 3.45402 1.30109 3.375 1.5 3.375C1.69891 3.375 1.88968 3.45402 2.03033 3.59467C2.17098 3.73532 2.25 3.92609 2.25 4.125V10.125Z" fill="#2B3674"/>
<path d="M7.8723 9.91395L8.8098 14.4977C8.83864 14.6442 8.90845 14.7645 9.01922 14.8587C9.12999 14.9529 9.2573 15 9.40114 15C9.59345 15 9.7473 14.9215 9.86268 14.7645C9.97807 14.6076 10.0165 14.4296 9.97807 14.2308L8.50691 6.14651L9.54537 6.58605V8.09302C9.54537 8.27093 9.60076 8.42016 9.71153 8.54072C9.8223 8.66128 9.95922 8.72135 10.1223 8.72093C10.2858 8.72093 10.4227 8.66065 10.5331 8.54009C10.6434 8.41953 10.6988 8.27051 10.6992 8.09302V6.17791C10.6992 6.05232 10.6679 5.93993 10.6052 5.84072C10.5425 5.74151 10.4584 5.66553 10.3531 5.61279L7.78576 4.41977C7.65114 4.35698 7.50922 4.32035 7.35999 4.30988C7.21076 4.29942 7.06903 4.32035 6.9348 4.37267C6.80018 4.425 6.67268 4.49826 6.5523 4.59244C6.43191 4.68663 6.33345 4.80698 6.25691 4.95349L5.67999 5.95814C5.55499 6.16744 5.40826 6.36628 5.2398 6.55465C5.07134 6.74302 4.88153 6.90523 4.67037 7.04128C4.53576 7.125 4.38672 7.20098 4.22326 7.26921C4.0598 7.33744 3.89634 7.38705 3.73287 7.41802C3.57903 7.44942 3.45153 7.52539 3.35037 7.64595C3.24922 7.76651 3.19884 7.91553 3.19922 8.09302C3.19922 8.27093 3.25691 8.41744 3.3723 8.53256C3.48768 8.64767 3.62711 8.69477 3.79057 8.67384C4.32903 8.59012 4.8123 8.40698 5.24037 8.12442C5.66845 7.84186 6.04095 7.50174 6.35787 7.10407L6.71845 9.03488L5.67999 10.1023C5.6223 10.1651 5.57903 10.2359 5.55018 10.3146C5.52134 10.3933 5.50691 10.4743 5.50691 10.5576V14.3721C5.50691 14.55 5.5623 14.6992 5.67307 14.8198C5.78384 14.9403 5.92076 15.0004 6.08384 15C6.2473 15 6.38422 14.9397 6.4946 14.8192C6.60499 14.6986 6.66037 14.5496 6.66076 14.3721V10.9186L7.8723 9.91395ZM6.3723 4.01163C6.6896 4.01163 6.96114 3.88877 7.18691 3.64305C7.41268 3.39733 7.52576 3.10158 7.52614 2.75581C7.52614 2.41046 7.41307 2.11493 7.18691 1.86921C6.96076 1.62349 6.68922 1.50042 6.3723 1.5C6.05499 1.5 5.78326 1.62307 5.55711 1.86921C5.33095 2.11535 5.21807 2.41088 5.21845 2.75581C5.21845 3.10116 5.33134 3.39691 5.55711 3.64305C5.78287 3.88919 6.05461 4.01205 6.3723 4.01163Z" fill="#2B3674"/>
<path d="M13.6796 2.84739C12.6709 1.88765 12.407 0.520683 12.7959 0.00878378C12.7646 0.0382496 12.7321 0.0657621 12.7022 0.0971812C11.7621 1.08523 11.8445 2.68979 12.8864 3.68109C13.9283 4.67238 15.5349 4.67494 16.475 3.68689C16.5063 3.65401 16.5336 3.61869 16.5625 3.58457C16.1244 3.93763 14.6867 3.80555 13.6796 2.84739Z" fill="#2B3674"/>
</g>
<defs>
<clipPath id="clip0_776_16655">
<rect width="18" height="18" fill="white"/>
</clipPath>
</defs>
</svg>
