<svg width="18" height="18" viewBox="0 0 18 18" fill="none" xmlns="http://www.w3.org/2000/svg">
<path d="M6.13071 4.21749C5.68676 4.14109 5.29137 4.23068 5.14129 4.65432L3.53587 7.42122C3.50552 7.47271 3.49212 7.52964 3.49212 7.58825C3.49212 7.62237 3.49798 7.65669 3.50719 7.69081C3.52519 7.75947 3.94654 8.33068 4.2536 8.73967L4.00975 9.87812C3.99217 9.95996 3.98317 10.0311 3.97856 10.0977C3.97689 10.1006 3.97375 10.1017 3.9727 10.105L3.6062 13.0775L1.21313 12.3786C1.17148 12.3635 1.11999 12.3539 1.06494 12.3539C0.890376 12.3539 0.673737 12.4357 0.610734 12.6009C0.52701 12.8192 0.737996 13.1026 0.909004 13.1687L4.53806 14.5575C4.70404 14.6211 4.88802 14.5251 4.93093 14.3526C4.93093 14.3526 5.48163 12.1058 5.72946 11.2922C5.79811 11.0676 6.18283 10.7093 6.24102 10.2616L6.91312 5.08195C6.98303 4.54611 6.61422 4.30079 6.13071 4.21749Z" fill="#2B3674"/>
<path d="M6.7516 4.02664C7.57768 4.02664 8.24735 3.35698 8.24735 2.5309C8.24735 1.70482 7.57768 1.03516 6.7516 1.03516C5.92553 1.03516 5.25586 1.70482 5.25586 2.5309C5.25586 3.35698 5.92553 4.02664 6.7516 4.02664Z" fill="#2B3674"/>
<path d="M8.64875 7.64728L7.41214 7.41348L7.01863 5.72852L6.6875 8.27898C6.69483 8.28401 6.70131 8.29008 6.70927 8.29468C6.78525 8.34219 8.50223 8.63293 8.52317 8.63293C8.71678 8.63293 8.89909 8.45627 8.94472 8.21137C8.99642 7.94157 8.86309 7.68914 8.64875 7.64728Z" fill="#2B3674"/>
<path d="M7.57214 16.5104L6.19507 10.8877C6.14944 10.9628 6.10214 11.0334 6.05818 11.0987C5.99372 11.1943 5.92695 11.2927 5.90999 11.3484C5.78671 11.7534 5.58493 12.5254 5.41602 13.1914L6.65493 16.7334C6.69847 16.9127 6.97434 17.152 7.2274 17.0904C7.48046 17.0287 7.61568 16.6894 7.57214 16.5104Z" fill="#2B3674"/>
<path d="M13.6943 3.73023C12.5595 2.65052 12.2625 1.11269 12.7 0.536798C12.6649 0.569947 12.6283 0.600899 12.5947 0.636245C11.5371 1.7478 11.6298 3.55293 12.8019 4.66814C13.974 5.78335 15.7815 5.78623 16.8391 4.67467C16.8743 4.63768 16.905 4.59794 16.9375 4.55956C16.4446 4.95675 14.8272 4.80816 13.6943 3.73023Z" fill="#2B3674"/>
</svg>
