<svg width="18" height="18" viewBox="0 0 18 18" fill="none" xmlns="http://www.w3.org/2000/svg">
<path d="M6.13071 4.21737C5.68676 4.14097 5.29137 4.23055 5.14129 4.6542L3.53587 7.42109C3.50552 7.47259 3.49212 7.52952 3.49212 7.58813C3.49212 7.62224 3.49798 7.65657 3.50719 7.69069C3.52519 7.75934 3.94654 8.33056 4.2536 8.73955L4.00975 9.878C3.99217 9.95984 3.98317 10.031 3.97856 10.0976C3.97689 10.1005 3.97375 10.1015 3.9727 10.1049L3.6062 13.0773L1.21313 12.3784C1.17148 12.3634 1.11999 12.3537 1.06494 12.3537C0.890376 12.3537 0.673737 12.4356 0.610734 12.6007C0.52701 12.819 0.737996 13.1024 0.909004 13.1686L4.53806 14.5574C4.70404 14.621 4.88802 14.5249 4.93093 14.3525C4.93093 14.3525 5.48163 12.1057 5.72946 11.2921C5.79811 11.0675 6.18283 10.7092 6.24102 10.2615L6.91312 5.08182C6.98303 4.54599 6.61422 4.30067 6.13071 4.21737Z" fill="#252F67"/>
<path d="M6.7516 4.0264C7.57768 4.0264 8.24735 3.35673 8.24735 2.53066C8.24735 1.70458 7.57768 1.03491 6.7516 1.03491C5.92553 1.03491 5.25586 1.70458 5.25586 2.53066C5.25586 3.35673 5.92553 4.0264 6.7516 4.0264Z" fill="#252F67"/>
<path d="M8.64875 7.64728L7.41214 7.41348L7.01863 5.72852L6.6875 8.27898C6.69483 8.28401 6.70131 8.29008 6.70927 8.29468C6.78525 8.34219 8.50223 8.63293 8.52317 8.63293C8.71678 8.63293 8.89909 8.45627 8.94472 8.21137C8.99642 7.94157 8.86309 7.68914 8.64875 7.64728Z" fill="#252F67"/>
<path d="M7.57214 16.5102L6.19507 10.8875C6.14944 10.9626 6.10214 11.0331 6.05818 11.0984C5.99372 11.1941 5.92695 11.2925 5.90999 11.3481C5.78671 11.7532 5.58493 12.5251 5.41602 13.1911L6.65493 16.7331C6.69847 16.9125 6.97434 17.1517 7.2274 17.0902C7.48046 17.0285 7.61568 16.6892 7.57214 16.5102Z" fill="#252F67"/>
<path d="M14.0626 4.21929C14.8393 4.21929 15.4689 3.58965 15.4689 2.81295C15.4689 2.03626 14.8393 1.40662 14.0626 1.40662C13.2859 1.40662 12.6562 2.03626 12.6562 2.81295C12.6562 3.58965 13.2859 4.21929 14.0626 4.21929Z" fill="#252F67"/>
<path fill-rule="evenodd" clip-rule="evenodd" d="M12.3048 2.81226C12.3048 2.61793 12.1475 2.46069 11.9532 2.46069H11.6016C11.4072 2.46069 11.25 2.61793 11.25 2.81226C11.25 3.00658 11.4072 3.16382 11.6016 3.16382H11.9531C12.1475 3.16382 12.3048 3.00658 12.3048 2.81226Z" fill="#252F67"/>
<path fill-rule="evenodd" clip-rule="evenodd" d="M12.3226 4.05518L12.0737 4.30417C11.9364 4.44146 11.9364 4.664 12.0737 4.80128C12.211 4.93857 12.4336 4.93857 12.5709 4.80128L12.8199 4.55238C12.9572 4.41509 12.9572 4.19246 12.8199 4.05518C12.6825 3.91781 12.46 3.91781 12.3226 4.05518Z" fill="#252F67"/>
<path fill-rule="evenodd" clip-rule="evenodd" d="M14.0625 4.57019C13.8682 4.57019 13.7109 4.72743 13.7109 4.92175V5.2734C13.7109 5.46773 13.8682 5.62497 14.0625 5.62497C14.2568 5.62497 14.4141 5.46773 14.4141 5.2734L14.4137 4.92175C14.4141 4.72743 14.2565 4.57019 14.0625 4.57019Z" fill="#252F67"/>
<path fill-rule="evenodd" clip-rule="evenodd" d="M15.8029 4.05554C15.6659 3.91791 15.4434 3.91791 15.3061 4.05519C15.1688 4.19248 15.1688 4.4151 15.3061 4.55239L15.5547 4.80094C15.692 4.93893 15.9146 4.93823 16.0518 4.80094C16.1891 4.66366 16.1895 4.44147 16.0518 4.30383L15.8029 4.05554Z" fill="#252F67"/>
<path fill-rule="evenodd" clip-rule="evenodd" d="M16.5235 2.46069L16.1712 2.4614C15.9776 2.46069 15.8203 2.61793 15.8203 2.81226C15.8196 3.00658 15.9776 3.16382 16.1712 3.16382H16.5228C16.7179 3.16452 16.8744 3.00658 16.8744 2.81226C16.8747 2.61828 16.7179 2.46069 16.5235 2.46069Z" fill="#252F67"/>
<path fill-rule="evenodd" clip-rule="evenodd" d="M15.8029 1.56964L16.0515 1.32099C16.1898 1.18336 16.1888 0.961169 16.0515 0.823796C15.9145 0.686072 15.692 0.686072 15.5547 0.823445L15.3061 1.0727C15.1688 1.20937 15.1688 1.43182 15.3061 1.5692C15.4427 1.70736 15.6659 1.70666 15.8029 1.56964Z" fill="#252F67"/>
<path fill-rule="evenodd" clip-rule="evenodd" d="M14.0625 1.05423C14.2565 1.05564 14.4141 0.896995 14.4141 0.703372V0.351809C14.4141 0.15678 14.2568 0.00024649 14.0625 0.00024649C13.8682 -0.000456635 13.7109 0.15678 13.7109 0.351194L13.7116 0.703459C13.7109 0.896995 13.8682 1.05423 14.0625 1.05423Z" fill="#252F67"/>
<path fill-rule="evenodd" clip-rule="evenodd" d="M12.3236 1.56927C12.4602 1.70655 12.6821 1.70655 12.8198 1.56891C12.9581 1.4326 12.9574 1.20944 12.8205 1.07242L12.5719 0.823865C12.4339 0.685789 12.212 0.686844 12.0747 0.823865C11.9362 0.960887 11.9362 1.18334 12.0736 1.32071L12.3236 1.56927Z" fill="#252F67"/>
</svg>
