<svg width="18" height="27" viewBox="0 0 18 27" fill="none" xmlns="http://www.w3.org/2000/svg">
<path d="M14.5836 3.73044C14.0851 3.2319 13.4374 2.97331 12.7842 2.95467C12.1378 2.93623 11.8146 2.92701 11.7394 2.90804C11.5784 2.86743 11.6923 2.91461 11.5498 2.82946C11.4831 2.78969 11.2481 2.56768 10.7779 2.12368C10.3029 1.67499 9.66207 1.3999 8.95708 1.3999C8.25208 1.3999 7.61127 1.67498 7.1362 2.12367C6.66611 2.56767 6.43103 2.78969 6.36442 2.82947C6.22184 2.91462 6.33575 2.86743 6.17472 2.90804C6.09949 2.92702 5.7763 2.93623 5.12991 2.95467C4.47669 2.97331 3.82906 3.2319 3.33051 3.73044C2.83196 4.229 2.57337 4.87664 2.55474 5.52985C2.5363 6.17623 2.52709 6.49942 2.50811 6.57465C2.46751 6.73567 2.51469 6.62176 2.42954 6.76434C2.38977 6.83095 2.16776 7.06601 1.72376 7.53612C1.27508 8.01117 1 8.65198 1 9.35698C1 10.062 1.27508 10.7028 1.72376 11.1778C2.16776 11.6479 2.38977 11.883 2.42954 11.9496C2.51469 12.0922 2.46751 11.9783 2.50811 12.1393C2.52709 12.2145 2.5363 12.5377 2.55474 13.1841C2.57337 13.8373 2.83196 14.485 3.33051 14.9835C3.82906 15.4821 4.47669 15.7407 5.12991 15.7592C5.77623 15.7777 6.09949 15.7869 6.17472 15.8059C6.33575 15.8465 6.22184 15.7994 6.36442 15.8845C6.43103 15.9243 6.66609 16.1463 7.1362 16.5903C7.61127 17.039 8.25208 17.3141 8.95708 17.3141C9.66207 17.3141 10.3029 17.039 10.7779 16.5903C11.248 16.1463 11.4831 15.9243 11.5498 15.8845C11.6923 15.7994 11.5784 15.8465 11.7394 15.8059C11.8146 15.7869 12.1378 15.7777 12.7842 15.7592C13.4374 15.7407 14.0851 15.4821 14.5836 14.9835C15.0821 14.485 15.3407 13.8373 15.3593 13.1842C15.3778 12.5378 15.387 12.2145 15.406 12.1393C15.4466 11.9783 15.3994 12.0922 15.4845 11.9497C15.5243 11.883 15.7464 11.6479 16.1904 11.1778C16.6391 10.7028 16.9142 10.062 16.9142 9.35698C16.9142 8.65198 16.6391 8.01117 16.1904 7.53609C15.7464 7.06601 15.5243 6.83092 15.4845 6.76432C15.3994 6.62173 15.4466 6.73565 15.406 6.57462C15.387 6.49939 15.3778 6.1762 15.3593 5.52981C15.3407 4.87661 15.0821 4.22899 14.5836 3.73044Z" stroke="#1928FA" stroke-width="2" stroke-linecap="round" stroke-linejoin="round"/>
<path d="M4.41017 15.46L1.70033 24.3121C1.44045 25.1611 2.33333 25.9024 3.12003 25.4909L8.49358 22.6801C8.78392 22.5283 9.13024 22.5283 9.42057 22.6801L14.7941 25.4909C15.5808 25.9024 16.4737 25.1611 16.2138 24.3121L13.504 15.46" stroke="#1928FA" stroke-width="2"/>
<path d="M11.8077 11.8999H5.94222C5.85901 11.8999 5.78735 11.8461 5.77081 11.7711L4.94105 8.03092C4.92714 7.96831 4.95479 7.90408 5.01158 7.86722C5.06828 7.83028 5.14335 7.82787 5.20285 7.86087L7.44153 9.10193L8.71824 6.73923C8.74755 6.68499 8.80758 6.65039 8.87347 6.6499C8.9355 6.64966 8.9999 6.68298 9.03027 6.73682L10.3493 9.07875L12.5471 7.86095C12.6067 7.82795 12.6816 7.83045 12.7384 7.8673C12.7952 7.90416 12.8229 7.96839 12.809 8.031L11.9793 11.7712C11.9625 11.8461 11.8908 11.8999 11.8077 11.8999Z" fill="url(#paint0_linear_418_3258)"/>
<defs>
<linearGradient id="paint0_linear_418_3258" x1="8.87502" y1="6.6499" x2="8.87502" y2="11.8999" gradientUnits="userSpaceOnUse">
<stop stop-color="#1928FA"/>
<stop offset="1" stop-color="#BEC3FF"/>
</linearGradient>
</defs>
</svg>
