<svg width="470" height="97" viewBox="0 0 470 97" fill="none" xmlns="http://www.w3.org/2000/svg">
<path d="M251.923 32.299V64.598H239.003V32.299C239.003 21.591 230.328 12.92 219.625 12.92C208.922 12.92 200.248 21.591 200.248 32.299V64.598H187.328V0H200.248V6.466C205.644 2.403 212.361 0 219.625 0C226.896 0 233.605 2.402 239.003 6.466C246.849 12.357 251.923 21.74 251.923 32.299Z" fill="white"/>
<path d="M329.439 0.00100708V48.446C329.439 54.107 328.462 59.544 326.683 64.598C320.028 83.414 302.087 96.895 280.995 96.895C279.908 96.895 278.83 96.859 277.766 96.781C273.261 96.496 268.927 95.574 264.845 94.139V80.099C268.78 82.113 273.148 83.414 277.766 83.825C278.823 83.92 279.902 83.978 280.995 83.978C296.826 83.978 310.238 73.627 314.83 59.316C309.746 62.661 303.672 64.598 297.145 64.598C289.878 64.598 283.164 62.19 277.765 58.131C269.916 52.235 264.844 42.859 264.844 32.299V0H277.765V32.299C277.765 42.999 286.438 51.678 297.145 51.678C305.439 51.678 312.525 46.457 315.277 39.116C316.082 36.999 316.522 34.698 316.522 32.299V0H329.439V0.00100708Z" fill="white"/>
<path d="M374.662 0.000976562C356.821 0.000976562 342.359 14.463 342.359 32.3C342.359 50.135 356.821 64.599 374.662 64.599C392.497 64.599 406.957 50.135 406.957 32.3C406.957 14.463 392.497 0.000976562 374.662 0.000976562ZM374.662 51.678C363.954 51.678 355.281 42.999 355.281 32.299C355.281 21.591 363.954 12.92 374.662 12.92C385.36 12.92 394.037 21.591 394.037 32.299C394.037 43 385.36 51.678 374.662 51.678Z" fill="white"/>
<path d="M12.921 19.7549C12.921 22.4109 14.433 24.709 16.647 25.838H25.837C29.673 25.838 33.248 26.9569 36.258 28.8879C41.647 32.3199 45.217 38.352 45.217 45.215C45.217 55.922 36.544 64.5989 25.837 64.5989H0V51.679H25.309C29.17 51.679 32.301 48.629 32.301 44.863C32.301 42.189 30.716 39.871 28.403 38.759H19.382C15.542 38.759 11.967 37.642 8.95801 35.713C3.57301 32.281 0.0010376 26.2439 0.0010376 19.3799C0.0010376 8.67694 8.67902 0.00195312 19.382 0.00195312H45.218V12.922H19.767C15.984 12.921 12.921 15.9819 12.921 19.7549Z" fill="white"/>
<path d="M469.861 0.000976562V12.921H450.484C444.746 12.921 439.593 15.415 436.048 19.379C432.972 22.81 431.104 27.339 431.104 32.3V64.599H418.18V0.000976562H431.104V6.46698C434.862 3.63898 439.249 1.61498 444.024 0.652985C446.113 0.218985 448.278 0.00198364 450.484 0.00198364H469.861V0.000976562Z" fill="white"/>
<path d="M174.412 0.000976562V32.3H161.495C161.455 25.128 157.564 18.877 151.79 15.529C148.941 13.868 145.642 12.921 142.111 12.921C131.448 12.921 122.789 21.589 122.734 32.3V32.406C122.734 43.169 131.411 51.891 142.111 51.891C145.664 51.891 149 50.93 151.859 49.249C153.47 53.234 155.64 56.941 158.261 60.267C153.515 63.02 147.998 64.598 142.111 64.598C131.547 64.598 122.165 59.517 116.277 51.671C112.217 46.271 109.817 39.563 109.817 32.299C109.817 25.123 105.92 18.861 100.119 15.514C97.2707 13.861 93.9607 12.92 90.4357 12.92C79.7327 12.92 71.0557 21.591 71.0557 32.299C71.0557 42.999 79.7327 51.678 90.4357 51.678C93.9597 51.678 97.2707 50.733 100.119 49.079C101.734 53.131 103.923 56.897 106.587 60.267C101.838 63.02 96.3237 64.598 90.4367 64.598C76.4587 64.598 64.5448 55.708 60.0598 43.272C58.8158 39.842 58.1367 36.148 58.1367 32.299C58.1367 31.204 58.1917 30.125 58.3017 29.068V0.000976562H90.4367C94.2877 0.000976562 97.9847 0.67999 101.413 1.92099C103.216 2.56499 104.944 3.37799 106.588 4.32999C107.771 5.00599 108.901 5.766 109.98 6.59C112.363 8.398 114.481 10.53 116.279 12.925C118.111 10.477 120.287 8.29998 122.736 6.46698C125.276 4.55698 128.105 3.01099 131.137 1.92099C134.57 0.67999 138.265 0.000976562 142.113 0.000976562H174.412Z" fill="#80CAA7"/>
<path d="M135.652 77.1411L115.453 96.8951L95.1484 77.2041C99.0604 76.7481 102.812 75.8011 106.35 74.4021L115.453 83.2781L124.611 74.248C128.101 75.658 131.802 76.6371 135.652 77.1411Z" fill="#FAB515"/>
<path d="M90.4358 27.6951C93.4588 27.6951 96.0268 29.615 97.0058 32.3H103.569C103.569 27.931 101.436 24.0571 98.1548 21.6731V21.6661C95.9888 20.0961 93.3208 19.1641 90.4348 19.1641C83.1828 19.1641 77.3008 25.044 77.3008 32.3H83.8638C84.8448 29.615 87.4128 27.6951 90.4358 27.6951Z" fill="white"/>
<path d="M141.454 27.6951C144.477 27.6951 147.045 29.615 148.024 32.3H155.032C155.032 28.008 152.98 24.1991 149.805 21.8011C147.599 20.1481 144.864 19.1641 141.899 19.1641C134.645 19.1641 128.762 25.044 128.762 32.3H134.883C135.863 29.615 138.431 27.6951 141.454 27.6951Z" fill="white"/>
</svg>
