<svg width="18" height="18" viewBox="0 0 18 18" fill="none" xmlns="http://www.w3.org/2000/svg">
<path d="M8.55799 11.5439H10.6719C11.0086 11.5439 11.2983 11.7451 11.4274 12.0339L13.1545 15.4906C13.6389 16.4637 12.1593 17.2004 11.6748 16.2272L11.592 16.0615L11.6024 16.2366C11.6661 17.3203 10.0185 17.4171 9.95483 16.3335L9.76845 13.198L6.95788 13.1947C6.50293 13.1947 6.13409 12.8259 6.13409 12.3709L6.1341 5.77678C6.03426 4.48896 8.27024 4.99325 8.44813 5.30036L10.2061 8.32966L11.5229 7.80716C12.53 7.40774 13.1373 8.93907 12.1302 9.33848L10.1524 10.1233C9.76781 10.2758 9.34768 10.1184 9.14673 9.77048L8.55797 8.77719L8.55799 11.5439Z" fill="#2B3674"/>
<path d="M7.39459 4.13049C8.2867 4.13049 9.00989 3.4073 9.00989 2.5152C9.00989 1.6231 8.2867 0.899902 7.39459 0.899902C6.50249 0.899902 5.7793 1.6231 5.7793 2.5152C5.7793 3.4073 6.50249 4.13049 7.39459 4.13049Z" fill="#2B3674"/>
<path d="M5.46074 13.8599V6.62598H4.75V13.8599V14.5706H5.46074H9.22869V13.8599H5.46074Z" fill="#2B3674"/>
</svg>
