<svg width="18" height="27" viewBox="0 0 18 27" fill="none" xmlns="http://www.w3.org/2000/svg">
<path d="M14.5836 3.73044C14.0851 3.2319 13.4374 2.97331 12.7842 2.95467C12.1378 2.93623 11.8146 2.92701 11.7394 2.90804C11.5784 2.86743 11.6923 2.91461 11.5498 2.82946C11.4831 2.78968 11.2481 2.56768 10.7779 2.12368C10.3029 1.67499 9.66207 1.3999 8.95707 1.3999C8.25208 1.3999 7.61127 1.67498 7.1362 2.12367C6.66611 2.56766 6.43103 2.78969 6.36442 2.82947C6.22184 2.91462 6.33575 2.86743 6.17471 2.90804C6.09949 2.92701 5.77629 2.93623 5.12991 2.95467C4.47669 2.97331 3.82906 3.23189 3.33051 3.73044C2.83196 4.229 2.57337 4.87664 2.55474 5.52985C2.5363 6.17622 2.52709 6.49941 2.50811 6.57464C2.46751 6.73567 2.51469 6.62176 2.42954 6.76434C2.38976 6.83095 2.16776 7.06601 1.72376 7.53611C1.27508 8.01117 1 8.65198 1 9.35697C1 10.062 1.27508 10.7028 1.72376 11.1778C2.16776 11.6479 2.38976 11.883 2.42954 11.9496C2.51469 12.0922 2.46751 11.9783 2.50811 12.1393C2.52709 12.2145 2.5363 12.5377 2.55474 13.1841C2.57337 13.8373 2.83196 14.485 3.33051 14.9835C3.82906 15.4821 4.47669 15.7407 5.12991 15.7592C5.77623 15.7777 6.09949 15.7869 6.17471 15.8059C6.33575 15.8465 6.22184 15.7994 6.36442 15.8845C6.43103 15.9243 6.66609 16.1463 7.1362 16.5903C7.61127 17.039 8.25208 17.314 8.95707 17.314C9.66207 17.314 10.3029 17.039 10.7779 16.5903C11.248 16.1463 11.4831 15.9243 11.5498 15.8845C11.6923 15.7994 11.5784 15.8465 11.7394 15.8059C11.8146 15.7869 12.1378 15.7777 12.7842 15.7592C13.4374 15.7407 14.0851 15.4821 14.5836 14.9835C15.0821 14.485 15.3407 13.8373 15.3593 13.1841C15.3778 12.5378 15.387 12.2145 15.406 12.1393C15.4466 11.9783 15.3994 12.0922 15.4845 11.9497C15.5243 11.883 15.7464 11.6479 16.1904 11.1778C16.6391 10.7028 16.9141 10.062 16.9141 9.35697C16.9141 8.65198 16.6391 8.01117 16.1904 7.53609C15.7464 7.06601 15.5243 6.83092 15.4845 6.76431C15.3994 6.62173 15.4466 6.73565 15.406 6.57462C15.387 6.49939 15.3778 6.1762 15.3593 5.52981C15.3407 4.87661 15.0821 4.22899 14.5836 3.73044Z" stroke="#FFA800" stroke-width="2" stroke-linecap="round" stroke-linejoin="round"/>
<path d="M4.41017 15.46L1.70033 24.3121C1.44045 25.161 2.33333 25.9024 3.12003 25.4909L8.49357 22.6801C8.78391 22.5283 9.13023 22.5283 9.42057 22.6801L14.7941 25.4909C15.5808 25.9024 16.4737 25.161 16.2138 24.3121L13.504 15.46" stroke="#FFA800" stroke-width="2"/>
<path d="M7.62501 6.91093L7.75408 6.67946C8.25281 5.78476 8.50221 5.3374 8.87502 5.3374C9.24782 5.3374 9.49722 5.78475 9.99595 6.67946L10.125 6.91094C10.2667 7.16517 10.3376 7.29229 10.4481 7.37617C10.5585 7.46004 10.6962 7.49118 10.9714 7.55345L11.2219 7.61014C12.1905 7.82928 12.6747 7.93885 12.7899 8.30936C12.9051 8.6798 12.575 9.06583 11.9148 9.83798L11.7439 10.0377C11.5563 10.2571 11.4625 10.3668 11.4203 10.5026C11.3781 10.6382 11.3923 10.7846 11.4206 11.0774L11.4464 11.3438C11.5463 12.374 11.5962 12.8891 11.2945 13.118C10.9929 13.347 10.5396 13.1382 9.63275 12.7207L9.39815 12.6127C9.1404 12.4941 9.01157 12.4347 8.87502 12.4347C8.73846 12.4347 8.60963 12.4941 8.35188 12.6127L8.11728 12.7207C7.21049 13.1382 6.7571 13.347 6.45547 13.118C6.15385 12.8891 6.20376 12.374 6.30358 11.3438L6.32941 11.0774C6.35777 10.7846 6.37195 10.6382 6.32975 10.5026C6.28755 10.3668 6.19373 10.2571 6.00611 10.0377L5.83529 9.83798C5.17503 9.06583 4.8449 8.6798 4.96011 8.30936C5.07532 7.93885 5.55958 7.82927 6.52808 7.61014L6.77864 7.55345C7.05386 7.49118 7.19147 7.46004 7.30198 7.37617C7.41247 7.29229 7.48334 7.16517 7.62501 6.91093Z" fill="url(#paint0_linear_418_3248)"/>
<defs>
<linearGradient id="paint0_linear_418_3248" x1="8.87502" y1="5.3374" x2="8.87502" y2="13.2124" gradientUnits="userSpaceOnUse">
<stop stop-color="#FFA800"/>
<stop offset="1" stop-color="#FFD686"/>
</linearGradient>
</defs>
</svg>
