<svg width="18" height="18" viewBox="0 0 18 18" fill="none" xmlns="http://www.w3.org/2000/svg">
<path d="M9.23137 17.3079H12.7698V15.9233C14.2529 15.0205 15.2314 13.4974 15.2314 11.7694V7.33865C15.2314 7.04487 15.1017 6.76313 14.8709 6.55539C14.6401 6.34766 14.327 6.23096 14.0006 6.23096H11.5391C11.2126 6.23096 10.8996 6.34766 10.6688 6.55539C10.438 6.76313 10.3083 7.04487 10.3083 7.33865V11.7694H5.53906C5.53906 13.4808 6.76983 15.0925 9.23137 15.9233V17.3079ZM6.94829 12.8771H13.8221C13.6493 13.3984 13.3567 13.8812 12.9635 14.2943C12.5702 14.7074 12.0849 15.0416 11.5391 15.2753V16.2002H10.4621V15.2753C9.23137 15.0925 7.29906 13.935 6.94829 12.8771ZM11.5391 7.33865H14.0006V11.7694H11.5391V7.33865ZM12.1544 7.8925V9.55403H13.3852V7.8925H12.1544Z" fill="#2B3674"/>
<path d="M7.19254 10.7263H5.19987C4.88244 10.7263 4.60938 10.9161 4.48774 11.1883L2.8597 14.4467C2.40305 15.364 3.79781 16.0584 4.25448 15.1411L4.33252 14.9849L4.32271 15.1499C4.26268 16.1714 5.81578 16.2627 5.87582 15.2413L6.05151 12.2856L8.70088 12.2825C9.12974 12.2825 9.47743 11.9348 9.47743 11.5059L9.47741 6.67462C9.57153 5.46066 7.46379 5.93603 7.2961 6.22552L5.63892 9.08108L4.39771 8.58855C3.44832 8.21203 2.87586 9.65554 3.8252 10.032L5.68954 10.7718C6.05211 10.9156 6.44814 10.7672 6.63757 10.4393L7.19256 9.50294L7.19254 10.7263Z" fill="#2B3674"/>
<path d="M8.28789 5.12246C7.44696 5.12246 6.76524 4.44074 6.76524 3.5998C6.76524 2.75886 7.44696 2.07715 8.28789 2.07715C9.12883 2.07715 9.81055 2.75886 9.81055 3.5998C9.81055 4.44074 9.12883 5.12246 8.28789 5.12246Z" fill="#2B3674"/>
</svg>
