<svg width="419" height="205" viewBox="0 0 419 205" fill="none" xmlns="http://www.w3.org/2000/svg">
<path opacity="0.9" fill-rule="evenodd" clip-rule="evenodd" d="M341.314 -266.021L342.899 -265.444L342.897 -265.436C342.356 -263.611 341.882 -262.011 327.2 -253.688L327.335 -253.71C338.865 -257.816 346.046 -260.395 350.555 -262.014L350.557 -262.014C357.965 -264.674 358.159 -264.743 358.573 -264.743L370.16 -263.377L371.228 -263.255C366.378 -263.135 362.926 -263.045 327.975 -253.819C355.08 -258.422 378.4 -262.012 390.256 -260.158L392.451 -259.733L404.13 -257C392.756 -258.701 379.522 -259.551 333.812 -254.479L333.4 -254.431L333.399 -254.431C331.495 -254.21 329.572 -253.986 327.628 -253.728L326.958 -253.551L326.88 -253.506L326.887 -253.503C327.016 -253.501 327.145 -253.499 327.274 -253.497L328.548 -253.598C348.076 -255.157 350.101 -255.318 362.901 -255.937C371.47 -255.967 379.916 -255.542 388.241 -254.752L385.985 -254.995C402.268 -254.388 416.326 -253.841 428.28 -250.015C429.686 -249.511 431.218 -248.971 432.804 -248.411C436.962 -246.945 441.492 -245.347 445.112 -243.941L445.966 -243.576C437.999 -246.413 429.749 -248.388 421.358 -249.468C414.131 -251.169 406.477 -252.505 398.884 -253.537C375.11 -254.744 351.29 -254.729 327.519 -253.492C383.243 -252.53 415.757 -249.425 447.277 -242.03C454.718 -239.266 461.945 -236.472 469.02 -233.192L467.495 -233.952L473.289 -231.31L477.222 -229.275L475.484 -230.095L478.107 -228.819L478.808 -228.424L478.852 -228.401L478.747 -228.455C466.79 -233.546 431.032 -248.311 327.191 -253.475C327.119 -253.471 327.048 -253.468 326.977 -253.464L327.093 -253.413C418.443 -243.21 480.305 -228.23 511.07 -208.864L513.845 -207.011C515.144 -206.045 516.508 -205.038 517.907 -204.005L517.924 -203.993C521.313 -201.49 524.905 -198.837 528.268 -196.26L532.294 -192.98C485.692 -226.02 384.308 -244.922 327.165 -253.382C327.444 -253.26 327.723 -253.139 328.003 -253.017C455.329 -223.73 534.233 -194.146 562.543 -165.285C563.588 -164.113 564.696 -162.876 565.843 -161.595L565.849 -161.589C569.458 -157.559 573.458 -153.093 577.089 -148.855C577.445 -148.458 577.787 -148.047 578.125 -147.641C578.278 -147.457 578.431 -147.274 578.583 -147.094L579.772 -145.666C580.413 -144.907 580.992 -144.209 581.571 -143.449C558.697 -168.136 521.268 -195.234 328.746 -252.694C352.277 -242.481 376.144 -233.049 400.012 -223.616C442.419 -206.857 484.826 -190.097 525.341 -168.961C564.129 -148.674 591.208 -131.394 606.211 -108.222L608.711 -103.97L613.163 -96.1956L619.78 -83.1974C620.268 -82.1041 620.725 -81.1323 621.213 -80.1604C599.288 -117.91 559.951 -143.056 432.884 -201.396C385.684 -222.97 348.253 -240.092 327.444 -253.083L326.59 -253.337C342.426 -235.989 368.081 -220.022 445.632 -179.405C555.409 -121.794 618.867 -86.6563 637.742 -37.7308C638.152 -36.4201 638.532 -35.1245 638.913 -33.8227L638.916 -33.8119C639.073 -33.2773 639.23 -32.7417 639.389 -32.2035L639.672 -31.1417L639.673 -31.1376C641.99 -22.4431 644.672 -12.3773 646.342 -4.38489C632.497 -52.5512 588.739 -84.4393 472.527 -150.159C393.153 -195.037 335.757 -227.502 326.505 -253.357L326.499 -253.358C319.268 -219.137 398.632 -170.275 468.686 -127.169C568.37 -65.8227 647.227 -17.2312 652.075 41.6555C652.083 41.8442 652.092 42.0325 652.102 42.2204C652.122 42.5953 652.145 42.969 652.169 43.3429L652.169 43.3469L652.169 43.3511L652.17 43.3553V43.3566V43.3579V43.3592V43.3604C652.229 44.3017 652.289 45.2445 652.289 46.211L652.594 59.4826L652.197 73.2097C651.984 74.302 651.984 75.4247 651.984 76.5171V76.52C649.727 20.3057 606.853 -16.5935 480.67 -98.136C406.414 -146.076 294.346 -218.477 326.25 -253.184L326.158 -253.208C266.582 -208.916 403.035 -115.969 476.411 -65.9876L476.43 -65.9746C587.885 9.85849 655.429 59.6647 645.823 125.02L645.536 126.189L645.218 127.485L645.217 127.49L645.214 127.503C643.533 134.354 641.549 142.441 639.541 149.711C638.901 151.897 638.23 154.114 637.559 156.331C651.526 90.7633 584.439 38.2238 472.466 -40.3426L472.443 -40.3591C412.969 -82.0914 232.367 -208.818 326.026 -253.243L325.852 -253.289L325.782 -253.307C261.854 -230.493 235.699 -167.881 469.417 1.5365C541.443 53.7419 649.939 132.399 621.275 197.785C620.715 198.963 620.127 200.168 619.53 201.393C619.249 201.968 618.966 202.548 618.683 203.13L611.334 217.161C610.823 218.099 610.288 219.037 609.729 220.017L609.505 220.411L608.59 221.959C607.926 223.216 607.246 224.313 606.549 225.436L606.541 225.45C606.376 225.715 606.21 225.983 606.043 226.254C605.978 226.36 605.913 226.467 605.847 226.575C605.816 226.625 605.785 226.676 605.754 226.728C629.753 177.923 594.441 129.15 466.184 33.7283C177.377 -181.204 270.361 -238.438 325.413 -253.274C282.922 -245.338 105.326 -193.6 449.382 72.6326C582.456 175.616 613.286 219.926 581.023 262.079L580.688 262.504C578.984 264.435 577.14 266.566 575.236 268.768L575.234 268.77L575.233 268.772L575.231 268.773L575.23 268.774C570.967 273.704 566.395 278.988 562.392 283.185L561.66 283.945C598.649 238.815 556.079 197.239 442.734 106.404C54.2633 -205.069 292.302 -248.926 325.591 -253.356L325.467 -253.388L322.895 -253.173C323.89 -253.315 324.699 -253.39 325.302 -253.431L325.161 -253.466L324.987 -253.511C183.14 -255.889 35.8035 -139.327 257.394 94.3436C290.605 129.347 328.551 158.962 366.496 188.577C407.5 220.578 448.503 252.581 483.536 291.382C499.667 309.239 510.766 328.008 482.987 344.164C481.476 344.937 479.853 345.778 478.171 346.65C473.505 349.068 468.38 351.724 463.898 353.822L463.074 354.186C498.66 333.778 471.765 313.157 400.074 258.492C-73.477 -103.076 177.032 -263.829 322.679 -253.787C184.05 -268.017 -21.3307 -144.398 174.572 103.245C241.567 187.916 320.515 245.801 383.942 292.297C441.27 334.298 465.177 351.943 437.733 364.668L430.963 367.067L421.236 370.104L420.595 370.286C440.063 360.758 425.501 350.507 364.65 307.67L363.908 307.147C-164.009 -64.3562 161.523 -282.458 321.173 -254.401C207.272 -278.935 -42.8502 -153.6 89.0996 85.3243C148.593 192.803 250.289 268.636 351.346 334.568C390.652 360.291 397.94 365.333 401.63 372.439C401.344 372.781 401.051 373.195 400.745 373.628L400.745 373.628L400.743 373.63C399.907 374.813 398.97 376.139 397.788 376.539H397.33C392.878 377.572 387.237 378.756 382.754 379.576H382.205C380.559 372.895 380.559 372.895 352.292 355.828L352.291 355.827C270.598 306.567 53.605 175.674 36.7724 -15.1689C29.7589 -96.104 81.2933 -167.868 146.55 -212.572C152.923 -216.641 160.058 -221.014 165.852 -224.385C170.762 -227.149 177.653 -230.885 182.685 -233.223C187.716 -235.562 194.455 -238.69 199.578 -240.876C203.176 -242.412 207.878 -244.184 211.859 -245.686C212.602 -245.966 213.321 -246.237 214.002 -246.495C221.107 -249.167 230.773 -252.143 238.092 -254.178C241.629 -255.15 246.386 -256.426 249.954 -257.215L251.509 -257.58H250.93C278.169 -262.612 303.913 -261.805 325.028 -253.669C325.19 -253.636 325.352 -253.603 325.513 -253.569C325.767 -253.547 326.019 -253.525 326.272 -253.503L326.417 -253.541C320.025 -257.323 303.339 -267.045 263.615 -260.25L265.658 -260.675C295.513 -265.646 315.163 -265.868 326.457 -253.551L326.523 -253.569L326.461 -253.547L326.495 -253.51L326.523 -253.48L326.524 -253.478L326.52 -253.48L326.519 -253.48L326.513 -253.484L326.427 -253.535L326.322 -253.498L326.519 -253.48L326.286 -253.485L326.254 -253.474C326.343 -253.476 326.413 -253.477 326.462 -253.477L326.508 -253.477L326.523 -253.477L326.487 -253.45L326.493 -253.444L326.524 -253.477L326.512 -253.422L326.584 -253.343L327.284 -253.182C327.157 -253.262 327.031 -253.341 326.905 -253.42L326.764 -253.441L326.616 -253.357L326.718 -253.448L326.706 -253.45C326.686 -253.449 326.665 -253.447 326.644 -253.446L326.699 -253.451L326.524 -253.477L326.725 -253.454L326.772 -253.496L326.755 -253.497L326.676 -253.476L326.737 -253.498L326.567 -253.506L326.553 -253.476L326.55 -253.49L326.546 -253.507L326.495 -253.51L326.546 -253.509C325.18 -259.435 324.802 -261.043 317.405 -263.832C311.732 -266.039 301.622 -265.367 296.395 -265.019L295.907 -264.986L299.201 -265.26C302.677 -265.533 307.312 -265.837 310.788 -266.019L310.929 -266.016C320.795 -265.805 331.867 -265.569 326.617 -253.621L326.815 -253.535L326.925 -253.633L326.676 -253.599L326.936 -253.643C333.843 -259.796 333.859 -259.854 334.94 -263.713V-263.713L334.83 -263.858C333.226 -265.972 333.027 -266.234 329.299 -266.234H335.642L341.314 -266.021ZM326.787 -253.454L326.777 -253.448L326.878 -253.437L326.847 -253.457C326.827 -253.456 326.807 -253.455 326.787 -253.454ZM326.839 -253.462L326.795 -253.458L326.821 -253.473L326.839 -253.462ZM326.959 -253.471L327.077 -253.481C327.025 -253.483 326.972 -253.486 326.92 -253.489L326.959 -253.471ZM487.072 -223.99C484.361 -225.52 481.651 -226.961 478.852 -228.401L487.072 -223.99ZM326.611 -253.606L326.766 -253.508L326.758 -253.505L326.568 -253.509L326.611 -253.606ZM326.464 -253.472L326.18 -253.448L326.146 -253.436L326.166 -253.431C326.268 -253.445 326.368 -253.457 326.465 -253.47L326.464 -253.472ZM326.469 -253.47L326.467 -253.472L326.521 -253.477L326.469 -253.47ZM326.521 -253.477L326.48 -253.457L326.471 -253.468L326.521 -253.477ZM326.475 -253.442L326.395 -253.383L326.406 -253.38L326.428 -253.375L326.479 -253.429L326.475 -253.442ZM326.501 -253.368L326.499 -253.36L326.504 -253.359L326.501 -253.368ZM326.471 -253.453L326.345 -253.393L326.214 -253.421L326.466 -253.467L326.471 -253.453ZM326.381 -253.372L326.421 -253.367L326.347 -253.288C326.316 -253.254 326.284 -253.22 326.253 -253.187L326.173 -253.219C326.242 -253.27 326.311 -253.321 326.381 -253.372ZM326.317 -253.38L326.119 -253.404L325.989 -253.38L325.872 -253.339L326.066 -253.262C326.149 -253.301 326.233 -253.341 326.317 -253.38ZM325.87 -253.494L326.212 -253.487L326.154 -253.472C326.107 -253.471 326.055 -253.469 325.999 -253.467L325.87 -253.494ZM325.927 -253.427L325.967 -253.422L325.845 -253.39L325.769 -253.38L325.698 -253.408L325.927 -253.427ZM325.53 -253.474L325.699 -253.454L325.595 -253.449L325.53 -253.474ZM327.16 -253.665L327.081 -253.62L327.235 -253.675L327.16 -253.665ZM397.083 -253.784C395.763 -253.975 394.395 -254.142 393.023 -254.284C392.883 -254.299 392.742 -254.313 392.602 -254.327C394.126 -254.175 395.651 -253.993 397.115 -253.78C397.104 -253.782 397.093 -253.783 397.083 -253.784ZM215.8 365.209L218.239 366.059C223.426 367.799 229.712 369.758 234.955 371.392L234.974 371.398L234.976 371.398L234.984 371.401L234.989 371.402L235.925 371.694L236.749 371.951C241.09 373.305 246.867 374.64 251.935 375.812L251.941 375.813L251.943 375.813C253.352 376.139 254.707 376.452 255.96 376.749C180.641 358.528 116.39 317.316 64.978 254.572L79.432 272.338C81.2312 274.373 82.8473 276.165 84.3415 277.805C89.6779 283.332 96.0206 289.771 102.638 296.027C106.482 299.534 111.229 303.715 117.695 309.41L117.702 309.417L117.702 309.417L118.464 310.088C122.001 312.912 126.148 316.162 130.387 319.199C156.392 338.695 185.183 354.204 215.8 365.209ZM21.9511 178.104C81.8408 318.898 231.779 372.774 284.716 381.581H285.478C288.283 381.915 291.79 382.28 294.473 382.553L300.054 383.039H300.45C269.194 380.154 54.3049 317.015 5.94189 122.71C6.1189 123.64 6.29274 124.565 6.46444 125.477L6.4645 125.478C6.8252 127.395 7.17643 129.262 7.52763 131.031C11.1259 144.576 16.6758 162.282 21.2803 175.796L21.9511 178.104ZM319.174 384.224H322.925H331.89C307.098 383.799 -47.7571 249.869 9.60163 -22.2435C8.24187 -16.9112 6.89691 -10.2815 5.64927 -4.13153L5.64895 -4.12997C5.10603 -1.45374 4.58154 1.13159 4.08228 3.47964C2.7931 11.5042 1.68533 21.8173 0.726188 30.7466C0.505598 32.8003 0.29287 34.7807 0.0876045 36.6433C-5.79769 280.846 286.698 381.066 319.174 384.224ZM41.4685 -100.869C-102.675 175.89 301.092 371.319 349.455 383.467H350.461L352.566 383.315H353.572L361.5 382.555H362.445C336.064 362.583 307.049 346.823 278.033 331.062C244.131 312.646 210.227 294.23 180.52 269.094C153.533 246.317 90.3498 192.927 53.3914 121.559C-20.4948 -21.1789 45.2803 -112.288 77.5426 -151.495L74.2187 -147.608L68.6994 -141.443C60.1611 -129.75 49.4272 -113.715 41.7428 -101.355L41.4685 -100.869ZM455.481 213.182C523.818 267.847 548.152 297.032 511.712 326.491C516.206 323.268 521.76 319.073 526.848 315.229C528.665 313.856 530.422 312.529 532.051 311.306C533.055 310.456 534.092 309.586 535.144 308.704L535.158 308.692C537.296 306.9 539.493 305.057 541.595 303.228C569.954 277.353 554.037 263.383 363.299 96.0763C86.8119 -146.456 211.409 -232.098 301.518 -249.986C219.765 -234.923 -8.08444 -156.781 455.481 213.182ZM322.894 -253.174C315.728 -252.557 308.602 -251.543 301.549 -250.137C311.093 -251.868 318.747 -252.779 322.894 -253.174Z" fill="url(#paint0_linear_181_7548)" fill-opacity="0.32"/>
<defs>
<linearGradient id="paint0_linear_181_7548" x1="25" y1="7.54316" x2="452.711" y2="350.544" gradientUnits="userSpaceOnUse">
<stop stop-color="white" stop-opacity="0"/>
<stop offset="1" stop-color="white" stop-opacity="0.47"/>
</linearGradient>
</defs>
</svg>
