<svg width="24" height="24" viewBox="0 0 24 24" fill="none" xmlns="http://www.w3.org/2000/svg">
<g clip-path="url(#clip0_667_6862)">
<path d="M23.3364 16.615H18.3271V20.4564H19.2983V20.8455C19.2983 21.0833 19.491 21.2761 19.7288 21.2761H21.8886C22.1265 21.2761 22.3192 21.0833 22.3192 20.8455V20.4564H23.3364C23.7031 20.4564 24.0005 20.159 24.0005 19.7923V17.2791C24.0005 16.9123 23.7032 16.615 23.3364 16.615Z" fill="#00BE9C"/>
<path d="M8.27041 7.14287C9.31344 7.14287 10.159 6.29733 10.159 5.2543C10.159 4.21127 9.31344 3.36572 8.27041 3.36572C7.22738 3.36572 6.38184 4.21127 6.38184 5.2543C6.38184 6.29733 7.22738 7.14287 8.27041 7.14287Z" fill="#00BE9C"/>
<path d="M16.3912 14.5211C16.2465 14.4914 16.2968 14.4989 14.7871 14.4989C14.9768 14.8197 15.0861 15.1934 15.0861 15.5924V21.0204C15.0861 21.6752 15.606 22.1139 16.1709 22.1139C16.7748 22.1139 17.2644 21.6243 17.2644 21.0204V15.5923C17.2644 15.0642 16.8898 14.6231 16.3912 14.5211Z" fill="#00BE9C"/>
<path d="M12.9298 14.4989C12.7759 14.4989 9.48389 14.4988 9.39193 14.4992L12.8165 13.6749L11.5149 8.38233L15.2308 3.33768C15.5293 2.93252 15.4427 2.36202 15.0375 2.0636C14.6324 1.76512 14.0619 1.85167 13.7634 2.25688L10.0075 7.35599C9.9543 7.36661 7.71746 7.91023 7.58496 7.96155L2.98064 3.2743C2.62797 2.91536 2.05099 2.91015 1.692 3.26282C1.33301 3.61549 1.32785 4.19248 1.68052 4.55147L6.91208 9.87722C7.05213 10.4467 8.14504 14.8907 8.3057 15.544C8.30501 15.5602 8.45818 16.2357 8.7012 16.4363C8.79008 16.5096 8.89124 16.5682 9.00042 16.6107C8.3311 16.6107 7.9067 16.6107 7.23616 16.6107V16.6151H0.664112C0.297363 16.6151 0 16.9125 0 17.2792V19.7924C0 20.1591 0.297363 20.4565 0.664112 20.4565H1.82158V20.8456C1.82158 21.0835 2.01433 21.2762 2.25214 21.2762H4.41194C4.64974 21.2762 4.84249 21.0835 4.84249 20.8456V20.4565H10.7737V18.3065H10.7781V16.686H11.8363V21.0204C11.8363 21.6244 12.3259 22.1139 12.9298 22.1139C13.5337 22.1139 14.0233 21.6244 14.0233 21.0204V15.5924C14.0233 14.9885 13.5337 14.4989 12.9298 14.4989Z" fill="#00BE9C"/>
</g>
<defs>
<clipPath id="clip0_667_6862">
<rect width="24" height="24" fill="white"/>
</clipPath>
</defs>
</svg>
