<svg width="223" height="223" viewBox="0 0 223 223" fill="none" xmlns="http://www.w3.org/2000/svg">
<path d="M214 111.5C214 124.96 211.349 138.289 206.198 150.725C201.047 163.161 193.496 174.46 183.978 183.978C174.46 193.496 163.161 201.047 150.725 206.198C138.289 211.349 124.96 214 111.5 214C98.0395 214 84.7108 211.349 72.2749 206.198C59.8391 201.047 48.5396 193.496 39.0216 183.978C29.5035 174.46 21.9535 163.161 16.8023 150.725C11.6512 138.289 9 124.96 9 111.5C9 98.0395 11.6512 84.7108 16.8024 72.2749C21.9535 59.8391 29.5036 48.5396 39.0216 39.0215C48.5396 29.5035 59.8391 21.9534 72.275 16.8023C84.7108 11.6512 98.0395 9 111.5 9C124.961 9 138.289 11.6512 150.725 16.8024C163.161 21.9535 174.46 29.5036 183.978 39.0216C193.496 48.5396 201.047 59.8391 206.198 72.275C211.349 84.7108 214 98.0395 214 111.5L214 111.5Z" stroke="#E6F8ED" stroke-width="18"/>
<path d="M195 111C195 121.9 192.853 132.693 188.682 142.763C184.511 152.833 178.397 161.983 170.69 169.69C162.983 177.397 153.833 183.511 143.763 187.682C133.693 191.853 122.9 194 112 194C101.1 194 90.3073 191.853 80.2373 187.682C70.1672 183.511 61.0174 177.397 53.3101 169.69C45.6029 161.983 39.4891 152.833 35.318 142.763C31.1469 132.693 29 121.9 29 111C29 100.1 31.1469 89.3073 35.318 79.2373C39.4891 69.1672 45.6029 60.0174 53.3101 52.3101C61.0174 44.6029 70.1673 38.4891 80.2373 34.318C90.3073 30.1469 101.1 28 112 28C122.9 28 133.693 30.1469 143.763 34.318C153.833 38.4891 162.983 44.6029 170.69 52.3101C178.397 60.0174 184.511 69.1673 188.682 79.2373C192.853 89.3073 195 100.1 195 111L195 111Z" stroke="#B0EBC8" stroke-width="21"/>
<path d="M176.5 111C176.5 119.47 174.832 127.858 171.59 135.683C168.349 143.509 163.598 150.619 157.608 156.608C151.619 162.598 144.509 167.349 136.683 170.59C128.858 173.832 120.47 175.5 112 175.5C103.53 175.5 95.1424 173.832 87.3169 170.59C79.4914 167.349 72.381 162.598 66.3916 156.608C60.4022 150.619 55.6512 143.509 52.4098 135.683C49.1683 127.858 47.5 119.47 47.5 111C47.5 102.53 49.1683 94.1424 52.4098 86.3169C55.6512 78.4914 60.4022 71.381 66.3916 65.3916C72.381 59.4022 79.4914 54.6512 87.3169 51.4098C95.1424 48.1683 103.53 46.5 112 46.5C120.47 46.5 128.858 48.1683 136.683 51.4098C144.509 54.6512 151.619 59.4022 157.608 65.3916C163.598 71.381 168.349 78.4914 171.59 86.3169C174.832 94.1424 176.5 102.53 176.5 111L176.5 111Z" stroke="#4cb585" stroke-width="15"/>
<rect x="54" y="54" width="116" height="116" rx="58" fill="#4cb585"/>
<path d="M101.853 94.1656C108.543 93.4179 115.457 93.4179 122.147 94.1656C124.659 94.4463 126.864 95.8046 128.258 97.7771L110.917 115.119L105.566 109.768C104.931 109.133 103.902 109.133 103.268 109.768C102.633 110.402 102.633 111.431 103.268 112.066L109.768 118.566C110.402 119.2 111.431 119.2 112.066 118.566L129.649 100.982C129.698 101.22 129.737 101.461 129.765 101.705C130.565 108.545 130.565 115.455 129.765 122.295C129.3 126.275 126.104 129.392 122.147 129.834C115.457 130.582 108.543 130.582 101.853 129.834C97.8959 129.392 94.7003 126.275 94.2348 122.295C93.4348 115.455 93.4348 108.545 94.2348 101.705C94.7003 97.7249 97.8959 94.6079 101.853 94.1656Z" fill="white"/>
</svg>
