<svg width="38" height="39" viewBox="0 0 38 39" fill="none" xmlns="http://www.w3.org/2000/svg">
<g opacity="0.75">
<path d="M23.7605 5.65546C26.6765 5.02417 30.2941 5.05573 35.217 6.28341C36.0654 6.49496 36.5811 7.35253 36.369 8.19882C36.157 9.04511 35.2974 9.55968 34.4491 9.34813C29.8722 8.20675 26.7607 8.2385 24.4321 8.74263C22.0962 9.2483 20.4171 10.2512 18.6382 11.3357L18.5051 11.417C16.7903 12.4631 14.8915 13.6215 12.3829 14.0386C9.78083 14.4711 6.70707 14.0887 2.57902 12.4413C1.76715 12.1173 1.37227 11.1981 1.69706 10.3881C2.02183 9.57819 2.94328 9.18425 3.75515 9.50827C7.54359 11.0201 10.0114 11.2302 11.8624 10.9225C13.7416 10.6101 15.1743 9.74534 16.987 8.64022C18.7705 7.55288 20.8516 6.28519 23.7605 5.65546Z" fill="white"/>
<path d="M35.217 12.6015C30.2941 11.3738 26.6765 11.3423 23.7605 11.9736C20.8516 12.6033 18.7705 13.871 16.987 14.9583C15.1743 16.0634 13.7416 16.9283 11.8624 17.2407C10.0114 17.5483 7.54359 17.3382 3.75515 15.8264C2.94328 15.5024 2.02183 15.8963 1.69706 16.7063C1.37227 17.5162 1.76715 18.4354 2.57902 18.7594C6.70707 20.4068 9.78083 20.7892 12.3829 20.3567C14.8915 19.9396 16.7903 18.7812 18.5051 17.7351L18.6382 17.6539C20.4171 16.5693 22.0962 15.5664 24.4321 15.0607C26.7607 14.5566 29.8722 14.5249 34.4491 15.6662C35.2974 15.8778 36.157 15.3632 36.369 14.5169C36.5811 13.6706 36.0654 12.8131 35.217 12.6015Z" fill="white"/>
<path fill-rule="evenodd" clip-rule="evenodd" d="M30.0831 16.3755C29.5333 16.3755 29.0753 16.6594 28.7556 17.0889C28.6433 17.2406 28.3838 17.5956 28.0391 18.0925C27.5806 18.7532 26.9669 19.6714 26.3505 20.6962C25.7371 21.7161 25.1043 22.8694 24.6201 23.9962C24.1565 25.0754 23.7483 26.2473 23.7499 27.4352C23.751 27.7687 23.7909 28.1037 23.8457 28.4319C23.9372 28.9798 24.1231 29.7341 24.5107 30.5075C24.9014 31.2873 25.5124 32.1151 26.4586 32.7443C27.4148 33.3802 28.6185 33.75 30.0831 33.75C31.5476 33.75 32.7513 33.3802 33.7073 32.7443C34.6535 32.1151 35.2647 31.2873 35.6554 30.5077C36.043 29.7341 36.2291 28.9798 36.3206 28.4321C36.3755 28.1034 36.4159 27.7674 36.4164 27.4336C36.4169 26.2457 36.0098 25.0756 35.546 23.9962C35.062 22.8694 34.4291 21.7161 33.8158 20.6962C33.1994 19.6714 32.5855 18.7532 32.127 18.0925C31.7823 17.5956 31.5226 17.2406 31.4105 17.0889C31.0908 16.6594 30.6326 16.3755 30.0831 16.3755ZM32.6355 25.2407C32.2291 24.2945 31.6745 23.276 31.1003 22.3215C30.7512 21.7411 30.4011 21.1945 30.0831 20.7151C29.765 21.1945 29.4149 21.7411 29.0658 22.3215C28.4918 23.276 27.9372 24.2945 27.5307 25.2407L27.5076 25.2942C27.2278 25.9448 26.8972 26.714 26.9169 27.4327C26.9359 28.0011 27.089 28.5879 27.3431 29.0949C27.5459 29.4999 27.8255 29.8568 28.2152 30.116C28.595 30.3685 29.1726 30.591 30.0831 30.591C30.9935 30.591 31.5711 30.3685 31.9509 30.116C32.3406 29.8568 32.6202 29.4997 32.8232 29.0949C33.0773 28.5879 33.2304 28.0011 33.2494 27.4325C33.2692 26.7142 32.9384 25.945 32.6587 25.2946L32.6355 25.2407Z" fill="white"/>
<path d="M22.3719 18.7572C23.5757 18.3675 24.4986 19.6204 23.9326 20.7496C23.674 21.2656 23.3832 21.7047 22.8049 21.909C21.2579 22.4555 19.9763 23.2252 18.6382 24.0409L18.5051 24.1221C16.7903 25.1682 14.8915 26.3266 12.3829 26.7437C9.78082 27.1762 6.70708 26.7939 2.57902 25.1464C1.76715 24.8224 1.37228 23.9032 1.69705 23.0933C2.02184 22.2833 2.94328 21.8893 3.75517 22.2134C7.54359 23.7252 10.0114 23.9353 11.8624 23.6277C13.7416 23.3153 15.1743 22.4505 16.987 21.3453C18.7096 20.2951 20.4825 19.3688 22.3719 18.7572Z" fill="white"/>
</g>
</svg>
